solid cylinder
facet normal 0.0 -0.9997808 -0.020939358
outer loop
vertex 1.5009999 -1.0 2.4492937E-16
vertex -0.001 -1.0 2.4492937E-16
vertex -0.001 -0.9980267 -0.06279052
endloop
endfacet
facet normal 0.0 -0.99649316 -0.08367479
outer loop
vertex 1.5009999 -0.9980267 -0.06279052
vertex -0.001 -0.9980267 -0.06279052
vertex -0.001 -0.9921147 -0.12533323
endloop
endfacet
facet normal 0.0 -0.9991226 -0.041878708
outer loop
vertex 1.5009999 -0.9980267 -0.06279052
vertex 1.5009999 -1.0 2.4492937E-16
vertex -0.001 -0.9980267 -0.06279052
endloop
endfacet
facet normal 0.0 -0.9945215 -0.1045315
outer loop
vertex 1.5009999 -0.9921147 -0.12533323
vertex 1.5009999 -0.9980267 -0.06279052
vertex -0.001 -0.9921147 -0.12533323
endloop
endfacet
facet normal 0.0 -0.98599553 -0.16677177
outer loop
vertex 1.5009999 -0.9822872 -0.18738131
vertex -0.001 -0.9921147 -0.12533323
vertex -0.001 -0.9822872 -0.18738131
endloop
endfacet
facet normal 0.0 -0.9781482 -0.20790869
outer loop
vertex 1.5009999 -0.9822872 -0.18738131
vertex -0.001 -0.9822872 -0.18738131
vertex -0.001 -0.96858317 -0.24868989
endloop
endfacet
facet normal 0.0 -0.98927283 -0.14608
outer loop
vertex 1.5009999 -0.9822872 -0.18738131
vertex 1.5009999 -0.9921147 -0.12533323
vertex -0.001 -0.9921147 -0.12533323
endloop
endfacet
facet normal 0.0 -0.9735782 -0.22835386
outer loop
vertex 1.5009999 -0.96858317 -0.24868989
vertex 1.5009999 -0.9822872 -0.18738131
vertex -0.001 -0.96858317 -0.24868989
endloop
endfacet
facet normal 0.0 -0.9573186 -0.28903475
outer loop
vertex 1.5009999 -0.95105654 -0.309017
vertex -0.001 -0.96858317 -0.24868989
vertex -0.001 -0.95105654 -0.309017
endloop
endfacet
facet normal 0.0 -0.9631634 -0.26891688
outer loop
vertex 1.5009999 -0.95105654 -0.309017
vertex 1.5009999 -0.96858317 -0.24868989
vertex -0.001 -0.96858317 -0.24868989
endloop
endfacet
facet normal 0.0 -0.9372809 -0.3485749
outer loop
vertex 1.5009999 -0.9297765 -0.36812454
vertex -0.001 -0.95105654 -0.309017
vertex -0.001 -0.9297765 -0.36812454
endloop
endfacet
facet normal 0.0 -0.94437736 -0.32886377
outer loop
vertex 1.5009999 -0.9297765 -0.36812454
vertex 1.5009999 -0.95105654 -0.309017
vertex -0.001 -0.95105654 -0.309017
endloop
endfacet
facet normal 0.0 -0.91354424 -0.4067394
outer loop
vertex 1.5009999 -0.90482706 -0.42577928
vertex -0.001 -0.9297765 -0.36812454
vertex -0.001 -0.90482706 -0.42577928
endloop
endfacet
facet normal 0.0 -0.8957131 -0.4446324
outer loop
vertex 1.5009999 -0.90482706 -0.42577928
vertex -0.001 -0.90482706 -0.42577928
vertex -0.001 -0.87630665 -0.48175368
endloop
endfacet
facet normal 0.0 -0.92186433 -0.38751274
outer loop
vertex 1.5009999 -0.90482706 -0.42577928
vertex 1.5009999 -0.9297765 -0.36812454
vertex -0.001 -0.9297765 -0.36812454
endloop
endfacet
facet normal 0.0 -0.88620216 -0.46329877
outer loop
vertex 1.5009999 -0.87630665 -0.48175368
vertex 1.5009999 -0.90482706 -0.42577928
vertex -0.001 -0.87630665 -0.48175368
endloop
endfacet
facet normal 0.0 -0.85536265 -0.51802963
outer loop
vertex 1.5009999 -0.8443279 -0.5358268
vertex -0.001 -0.87630665 -0.48175368
vertex -0.001 -0.8443279 -0.5358268
endloop
endfacet
facet normal 0.0 -0.86602694 -0.49999735
outer loop
vertex 1.5009999 -0.8443279 -0.5358268
vertex 1.5009999 -0.87630665 -0.48175368
vertex -0.001 -0.87630665 -0.48175368
endloop
endfacet
facet normal 0.0 -0.8211475 -0.5707161
outer loop
vertex 1.5009999 -0.809017 -0.58778524
vertex -0.001 -0.8443279 -0.5358268
vertex -0.001 -0.809017 -0.58778524
endloop
endfacet
facet normal 0.0 -0.83292294 -0.553389
outer loop
vertex 1.5009999 -0.809017 -0.58778524
vertex 1.5009999 -0.8443279 -0.5358268
vertex -0.001 -0.8443279 -0.5358268
endloop
endfacet
facet normal 0.0 -0.7836916 -0.6211502
outer loop
vertex 1.5009999 -0.77051324 -0.637424
vertex -0.001 -0.809017 -0.58778524
vertex -0.001 -0.77051324 -0.637424
endloop
endfacet
facet normal 0.0 -0.756997 -0.65341824
outer loop
vertex 1.5009999 -0.77051324 -0.637424
vertex -0.001 -0.77051324 -0.637424
vertex -0.001 -0.7289686 -0.6845471
endloop
endfacet
facet normal 0.0 -0.7965318 -0.6045967
outer loop
vertex 1.5009999 -0.77051324 -0.637424
vertex 1.5009999 -0.809017 -0.58778524
vertex -0.001 -0.809017 -0.58778524
endloop
endfacet
facet normal 0.0 -0.7431428 -0.6691329
outer loop
vertex 1.5009999 -0.7289686 -0.6845471
vertex 1.5009999 -0.77051324 -0.637424
vertex -0.001 -0.7289686 -0.6845471
endloop
endfacet
facet normal 0.0 -0.6996612 -0.71447486
outer loop
vertex 1.5009999 -0.6845471 -0.7289686
vertex -0.001 -0.7289686 -0.6845471
vertex -0.001 -0.6845471 -0.7289686
endloop
endfacet
facet normal 0.0 -0.71447486 -0.6996612
outer loop
vertex 1.5009999 -0.6845471 -0.7289686
vertex 1.5009999 -0.7289686 -0.6845471
vertex -0.001 -0.7289686 -0.6845471
endloop
endfacet
facet normal 0.0 -0.65341824 -0.7569971
outer loop
vertex 1.5009999 -0.637424 -0.77051324
vertex -0.001 -0.6845471 -0.7289686
vertex -0.001 -0.637424 -0.77051324
endloop
endfacet
facet normal 0.0 -0.6211502 -0.7836916
outer loop
vertex 1.5009999 -0.637424 -0.77051324
vertex -0.001 -0.637424 -0.77051324
vertex -0.001 -0.58778524 -0.809017
endloop
endfacet
facet normal 0.0 -0.6691329 -0.7431428
outer loop
vertex 1.5009999 -0.637424 -0.77051324
vertex 1.5009999 -0.6845471 -0.7289686
vertex -0.001 -0.6845471 -0.7289686
endloop
endfacet
facet normal 0.0 -0.6045967 -0.7965318
outer loop
vertex 1.5009999 -0.58778524 -0.809017
vertex 1.5009999 -0.637424 -0.77051324
vertex -0.001 -0.58778524 -0.809017
endloop
endfacet
facet normal 0.0 -0.553389 -0.83292294
outer loop
vertex 1.5009999 -0.5358268 -0.8443279
vertex -0.001 -0.58778524 -0.809017
vertex -0.001 -0.5358268 -0.8443279
endloop
endfacet
facet normal 0.0 -0.5707161 -0.8211475
outer loop
vertex 1.5009999 -0.5358268 -0.8443279
vertex 1.5009999 -0.58778524 -0.809017
vertex -0.001 -0.58778524 -0.809017
endloop
endfacet
facet normal 0.0 -0.49999735 -0.86602694
outer loop
vertex 1.5009999 -0.48175368 -0.87630665
vertex -0.001 -0.5358268 -0.8443279
vertex -0.001 -0.48175368 -0.87630665
endloop
endfacet
facet normal 0.0 -0.51802963 -0.85536265
outer loop
vertex 1.5009999 -0.48175368 -0.87630665
vertex 1.5009999 -0.5358268 -0.8443279
vertex -0.001 -0.5358268 -0.8443279
endloop
endfacet
facet normal 0.0 -0.4446324 -0.89571315
outer loop
vertex 1.5009999 -0.42577928 -0.90482706
vertex -0.001 -0.48175368 -0.87630665
vertex -0.001 -0.42577928 -0.90482706
endloop
endfacet
facet normal 0.0 -0.46329877 -0.88620216
outer loop
vertex 1.5009999 -0.42577928 -0.90482706
vertex 1.5009999 -0.48175368 -0.87630665
vertex -0.001 -0.48175368 -0.87630665
endloop
endfacet
facet normal 0.0 -0.38751274 -0.92186433
outer loop
vertex 1.5009999 -0.36812454 -0.9297765
vertex -0.001 -0.42577928 -0.90482706
vertex -0.001 -0.36812454 -0.9297765
endloop
endfacet
facet normal 0.0 -0.4067394 -0.91354424
outer loop
vertex 1.5009999 -0.36812454 -0.9297765
vertex 1.5009999 -0.42577928 -0.90482706
vertex -0.001 -0.42577928 -0.90482706
endloop
endfacet
facet normal 0.0 -0.32886377 -0.94437736
outer loop
vertex 1.5009999 -0.309017 -0.95105654
vertex -0.001 -0.36812454 -0.9297765
vertex -0.001 -0.309017 -0.95105654
endloop
endfacet
facet normal 0.0 -0.28903475 -0.9573186
outer loop
vertex 1.5009999 -0.309017 -0.95105654
vertex -0.001 -0.309017 -0.95105654
vertex -0.001 -0.24868989 -0.96858317
endloop
endfacet
facet normal 0.0 -0.3485749 -0.9372809
outer loop
vertex 1.5009999 -0.309017 -0.95105654
vertex 1.5009999 -0.36812454 -0.9297765
vertex -0.001 -0.36812454 -0.9297765
endloop
endfacet
facet normal 0.0 -0.26891688 -0.9631634
outer loop
vertex 1.5009999 -0.24868989 -0.96858317
vertex 1.5009999 -0.309017 -0.95105654
vertex -0.001 -0.24868989 -0.96858317
endloop
endfacet
facet normal 0.0 -0.2079087 -0.9781482
outer loop
vertex 1.5009999 -0.18738131 -0.9822872
vertex -0.001 -0.24868989 -0.96858317
vertex -0.001 -0.18738131 -0.9822872
endloop
endfacet
facet normal 0.0 -0.22835386 -0.9735782
outer loop
vertex 1.5009999 -0.18738131 -0.9822872
vertex 1.5009999 -0.24868989 -0.96858317
vertex -0.001 -0.24868989 -0.96858317
endloop
endfacet
facet normal 0.0 -0.14608 -0.98927283
outer loop
vertex 1.5009999 -0.12533323 -0.9921147
vertex -0.001 -0.18738131 -0.9822872
vertex -0.001 -0.12533323 -0.9921147
endloop
endfacet
facet normal 0.0 -0.10453151 -0.99452156
outer loop
vertex 1.5009999 -0.12533323 -0.9921147
vertex -0.001 -0.12533323 -0.9921147
vertex -0.001 -0.06279052 -0.9980267
endloop
endfacet
facet normal 0.0 -0.16677177 -0.98599553
outer loop
vertex 1.5009999 -0.12533323 -0.9921147
vertex 1.5009999 -0.18738131 -0.9822872
vertex -0.001 -0.18738131 -0.9822872
endloop
endfacet
facet normal 0.0 -0.08367479 -0.99649316
outer loop
vertex 1.5009999 -0.06279052 -0.9980267
vertex 1.5009999 -0.12533323 -0.9921147
vertex -0.001 -0.06279052 -0.9980267
endloop
endfacet
facet normal 0.0 -0.020939354 -0.9997807
outer loop
vertex 1.5009999 6.049015E-16 -1.0
vertex -0.001 -0.06279052 -0.9980267
vertex -0.001 6.049015E-16 -1.0
endloop
endfacet
facet normal 0.0 -0.041878708 -0.9991226
outer loop
vertex 1.5009999 6.049015E-16 -1.0
vertex 1.5009999 -0.06279052 -0.9980267
vertex -0.001 -0.06279052 -0.9980267
endloop
endfacet
facet normal 0.0 0.020939354 -0.9997807
outer loop
vertex 1.5009999 0.06279052 -0.9980267
vertex 1.5009999 6.049015E-16 -1.0
vertex -0.001 6.049015E-16 -1.0
endloop
endfacet
facet normal 0.0 0.041878708 -0.9991226
outer loop
vertex 1.5009999 0.06279052 -0.9980267
vertex -0.001 6.049015E-16 -1.0
vertex -0.001 0.06279052 -0.9980267
endloop
endfacet
facet normal 0.0 0.08367479 -0.99649316
outer loop
vertex 1.5009999 0.12533323 -0.9921147
vertex 1.5009999 0.06279052 -0.9980267
vertex -0.001 0.06279052 -0.9980267
endloop
endfacet
facet normal 0.0 0.1045315 -0.9945215
outer loop
vertex 1.5009999 0.12533323 -0.9921147
vertex -0.001 0.06279052 -0.9980267
vertex -0.001 0.12533323 -0.9921147
endloop
endfacet
facet normal 0.0 0.14608 -0.98927283
outer loop
vertex 1.5009999 0.12533323 -0.9921147
vertex -0.001 0.12533323 -0.9921147
vertex -0.001 0.18738131 -0.9822872
endloop
endfacet
facet normal 0.0 0.16677177 -0.98599553
outer loop
vertex 1.5009999 0.18738131 -0.9822872
vertex 1.5009999 0.12533323 -0.9921147
vertex -0.001 0.18738131 -0.9822872
endloop
endfacet
facet normal 0.0 0.20790869 -0.9781482
outer loop
vertex 1.5009999 0.18738131 -0.9822872
vertex -0.001 0.18738131 -0.9822872
vertex -0.001 0.24868989 -0.96858317
endloop
endfacet
facet normal 0.0 0.22835386 -0.9735782
outer loop
vertex 1.5009999 0.24868989 -0.96858317
vertex 1.5009999 0.18738131 -0.9822872
vertex -0.001 0.24868989 -0.96858317
endloop
endfacet
facet normal 0.0 0.26891688 -0.9631634
outer loop
vertex 1.5009999 0.309017 -0.95105654
vertex 1.5009999 0.24868989 -0.96858317
vertex -0.001 0.24868989 -0.96858317
endloop
endfacet
facet normal 0.0 0.28903475 -0.9573186
outer loop
vertex 1.5009999 0.309017 -0.95105654
vertex -0.001 0.24868989 -0.96858317
vertex -0.001 0.309017 -0.95105654
endloop
endfacet
facet normal 0.0 0.32886377 -0.94437736
outer loop
vertex 1.5009999 0.36812454 -0.9297765
vertex 1.5009999 0.309017 -0.95105654
vertex -0.001 0.309017 -0.95105654
endloop
endfacet
facet normal 0.0 0.3485749 -0.9372809
outer loop
vertex 1.5009999 0.36812454 -0.9297765
vertex -0.001 0.309017 -0.95105654
vertex -0.001 0.36812454 -0.9297765
endloop
endfacet
facet normal 0.0 0.4067394 -0.91354424
outer loop
vertex 1.5009999 0.42577928 -0.90482706
vertex -0.001 0.36812454 -0.9297765
vertex -0.001 0.42577928 -0.90482706
endloop
endfacet
facet normal 0.0 0.38751274 -0.92186433
outer loop
vertex 1.5009999 0.42577928 -0.90482706
vertex 1.5009999 0.36812454 -0.9297765
vertex -0.001 0.36812454 -0.9297765
endloop
endfacet
facet normal 0.0 0.4446324 -0.8957131
outer loop
vertex 1.5009999 0.42577928 -0.90482706
vertex -0.001 0.42577928 -0.90482706
vertex -0.001 0.48175368 -0.87630665
endloop
endfacet
facet normal 0.0 0.46329877 -0.88620216
outer loop
vertex 1.5009999 0.48175368 -0.87630665
vertex 1.5009999 0.42577928 -0.90482706
vertex -0.001 0.48175368 -0.87630665
endloop
endfacet
facet normal 0.0 0.51802963 -0.85536265
outer loop
vertex 1.5009999 0.5358268 -0.8443279
vertex -0.001 0.48175368 -0.87630665
vertex -0.001 0.5358268 -0.8443279
endloop
endfacet
facet normal 0.0 0.49999735 -0.86602694
outer loop
vertex 1.5009999 0.5358268 -0.8443279
vertex 1.5009999 0.48175368 -0.87630665
vertex -0.001 0.48175368 -0.87630665
endloop
endfacet
facet normal 0.0 0.5707161 -0.8211475
outer loop
vertex 1.5009999 0.58778524 -0.809017
vertex -0.001 0.5358268 -0.8443279
vertex -0.001 0.58778524 -0.809017
endloop
endfacet
facet normal 0.0 0.6045967 -0.79653174
outer loop
vertex 1.5009999 0.58778524 -0.809017
vertex -0.001 0.58778524 -0.809017
vertex -0.001 0.637424 -0.77051324
endloop
endfacet
facet normal 0.0 0.553389 -0.83292294
outer loop
vertex 1.5009999 0.58778524 -0.809017
vertex 1.5009999 0.5358268 -0.8443279
vertex -0.001 0.5358268 -0.8443279
endloop
endfacet
facet normal 0.0 0.6211502 -0.7836916
outer loop
vertex 1.5009999 0.637424 -0.77051324
vertex 1.5009999 0.58778524 -0.809017
vertex -0.001 0.637424 -0.77051324
endloop
endfacet
facet normal 0.0 0.6691329 -0.7431428
outer loop
vertex 1.5009999 0.6845471 -0.7289686
vertex -0.001 0.637424 -0.77051324
vertex -0.001 0.6845471 -0.7289686
endloop
endfacet
facet normal 0.0 0.65341824 -0.7569971
outer loop
vertex 1.5009999 0.6845471 -0.7289686
vertex 1.5009999 0.637424 -0.77051324
vertex -0.001 0.637424 -0.77051324
endloop
endfacet
facet normal 0.0 0.71447486 -0.6996612
outer loop
vertex 1.5009999 0.7289686 -0.6845471
vertex -0.001 0.6845471 -0.7289686
vertex -0.001 0.7289686 -0.6845471
endloop
endfacet
facet normal 0.0 0.6996612 -0.71447486
outer loop
vertex 1.5009999 0.7289686 -0.6845471
vertex 1.5009999 0.6845471 -0.7289686
vertex -0.001 0.6845471 -0.7289686
endloop
endfacet
facet normal 0.0 0.7569971 -0.65341824
outer loop
vertex 1.5009999 0.77051324 -0.637424
vertex -0.001 0.7289686 -0.6845471
vertex -0.001 0.77051324 -0.637424
endloop
endfacet
facet normal 0.0 0.7431428 -0.6691329
outer loop
vertex 1.5009999 0.77051324 -0.637424
vertex 1.5009999 0.7289686 -0.6845471
vertex -0.001 0.7289686 -0.6845471
endloop
endfacet
facet normal 0.0 0.7965318 -0.6045967
outer loop
vertex 1.5009999 0.809017 -0.58778524
vertex -0.001 0.77051324 -0.637424
vertex -0.001 0.809017 -0.58778524
endloop
endfacet
facet normal 0.0 0.8211475 -0.5707161
outer loop
vertex 1.5009999 0.809017 -0.58778524
vertex -0.001 0.809017 -0.58778524
vertex -0.001 0.8443279 -0.5358268
endloop
endfacet
facet normal 0.0 0.7836916 -0.6211502
outer loop
vertex 1.5009999 0.809017 -0.58778524
vertex 1.5009999 0.77051324 -0.637424
vertex -0.001 0.77051324 -0.637424
endloop
endfacet
facet normal 0.0 0.83292294 -0.553389
outer loop
vertex 1.5009999 0.8443279 -0.5358268
vertex 1.5009999 0.809017 -0.58778524
vertex -0.001 0.8443279 -0.5358268
endloop
endfacet
facet normal 0.0 0.86602694 -0.49999735
outer loop
vertex 1.5009999 0.87630665 -0.48175368
vertex -0.001 0.8443279 -0.5358268
vertex -0.001 0.87630665 -0.48175368
endloop
endfacet
facet normal 0.0 0.85536265 -0.51802963
outer loop
vertex 1.5009999 0.87630665 -0.48175368
vertex 1.5009999 0.8443279 -0.5358268
vertex -0.001 0.8443279 -0.5358268
endloop
endfacet
facet normal 0.0 0.89571315 -0.4446324
outer loop
vertex 1.5009999 0.90482706 -0.42577928
vertex -0.001 0.87630665 -0.48175368
vertex -0.001 0.90482706 -0.42577928
endloop
endfacet
facet normal 0.0 0.88620216 -0.46329877
outer loop
vertex 1.5009999 0.90482706 -0.42577928
vertex 1.5009999 0.87630665 -0.48175368
vertex -0.001 0.87630665 -0.48175368
endloop
endfacet
facet normal 0.0 0.92186433 -0.38751274
outer loop
vertex 1.5009999 0.9297765 -0.36812454
vertex -0.001 0.90482706 -0.42577928
vertex -0.001 0.9297765 -0.36812454
endloop
endfacet
facet normal 0.0 0.91354424 -0.4067394
outer loop
vertex 1.5009999 0.9297765 -0.36812454
vertex 1.5009999 0.90482706 -0.42577928
vertex -0.001 0.90482706 -0.42577928
endloop
endfacet
facet normal 0.0 0.94437736 -0.32886377
outer loop
vertex 1.5009999 0.95105654 -0.309017
vertex -0.001 0.9297765 -0.36812454
vertex -0.001 0.95105654 -0.309017
endloop
endfacet
facet normal 0.0 0.9372809 -0.3485749
outer loop
vertex 1.5009999 0.95105654 -0.309017
vertex 1.5009999 0.9297765 -0.36812454
vertex -0.001 0.9297765 -0.36812454
endloop
endfacet
facet normal 0.0 0.9631634 -0.26891688
outer loop
vertex 1.5009999 0.96858317 -0.24868989
vertex -0.001 0.95105654 -0.309017
vertex -0.001 0.96858317 -0.24868989
endloop
endfacet
facet normal 0.0 0.9735782 -0.22835386
outer loop
vertex 1.5009999 0.96858317 -0.24868989
vertex -0.001 0.96858317 -0.24868989
vertex -0.001 0.9822872 -0.18738131
endloop
endfacet
facet normal 0.0 0.9573186 -0.28903475
outer loop
vertex 1.5009999 0.96858317 -0.24868989
vertex 1.5009999 0.95105654 -0.309017
vertex -0.001 0.95105654 -0.309017
endloop
endfacet
facet normal 0.0 0.9781482 -0.2079087
outer loop
vertex 1.5009999 0.9822872 -0.18738131
vertex 1.5009999 0.96858317 -0.24868989
vertex -0.001 0.9822872 -0.18738131
endloop
endfacet
facet normal 0.0 0.98927283 -0.14608
outer loop
vertex 1.5009999 0.9921147 -0.12533323
vertex -0.001 0.9822872 -0.18738131
vertex -0.001 0.9921147 -0.12533323
endloop
endfacet
facet normal 0.0 0.98599553 -0.16677177
outer loop
vertex 1.5009999 0.9921147 -0.12533323
vertex 1.5009999 0.9822872 -0.18738131
vertex -0.001 0.9822872 -0.18738131
endloop
endfacet
facet normal 0.0 0.99649316 -0.08367479
outer loop
vertex 1.5009999 0.9980267 -0.06279052
vertex -0.001 0.9921147 -0.12533323
vertex -0.001 0.9980267 -0.06279052
endloop
endfacet
facet normal 0.0 0.9945215 -0.1045315
outer loop
vertex 1.5009999 0.9980267 -0.06279052
vertex 1.5009999 0.9921147 -0.12533323
vertex -0.001 0.9921147 -0.12533323
endloop
endfacet
facet normal 0.0 0.9991226 -0.041878708
outer loop
vertex 1.5009999 1.0 2.5420706E-15
vertex 1.5009999 0.9980267 -0.06279052
vertex -0.001 0.9980267 -0.06279052
endloop
endfacet
facet normal 0.0 0.9997807 -0.020939354
outer loop
vertex 1.5009999 1.0 2.5420706E-15
vertex -0.001 0.9980267 -0.06279052
vertex -0.001 1.0 2.5420706E-15
endloop
endfacet
facet normal 0.0 0.9997807 0.020939354
outer loop
vertex 1.5009999 0.9980267 0.06279052
vertex 1.5009999 1.0 2.5420706E-15
vertex -0.001 1.0 2.5420706E-15
endloop
endfacet
facet normal 0.0 0.9991226 0.041878708
outer loop
vertex 1.5009999 0.9980267 0.06279052
vertex -0.001 1.0 2.5420706E-15
vertex -0.001 0.9980267 0.06279052
endloop
endfacet
facet normal 0.0 0.99649316 0.08367479
outer loop
vertex 1.5009999 0.9921147 0.12533323
vertex 1.5009999 0.9980267 0.06279052
vertex -0.001 0.9980267 0.06279052
endloop
endfacet
facet normal 0.0 0.9945215 0.1045315
outer loop
vertex 1.5009999 0.9921147 0.12533323
vertex -0.001 0.9980267 0.06279052
vertex -0.001 0.9921147 0.12533323
endloop
endfacet
facet normal 0.0 0.98927283 0.14608
outer loop
vertex 1.5009999 0.9822872 0.18738131
vertex 1.5009999 0.9921147 0.12533323
vertex -0.001 0.9921147 0.12533323
endloop
endfacet
facet normal 0.0 0.98599553 0.16677177
outer loop
vertex 1.5009999 0.9822872 0.18738131
vertex -0.001 0.9921147 0.12533323
vertex -0.001 0.9822872 0.18738131
endloop
endfacet
facet normal 0.0 0.9781482 0.2079087
outer loop
vertex 1.5009999 0.96858317 0.24868989
vertex 1.5009999 0.9822872 0.18738131
vertex -0.001 0.9822872 0.18738131
endloop
endfacet
facet normal 0.0 0.9735782 0.22835386
outer loop
vertex 1.5009999 0.96858317 0.24868989
vertex -0.001 0.9822872 0.18738131
vertex -0.001 0.96858317 0.24868989
endloop
endfacet
facet normal 0.0 0.9631634 0.26891688
outer loop
vertex 1.5009999 0.96858317 0.24868989
vertex -0.001 0.96858317 0.24868989
vertex -0.001 0.95105654 0.309017
endloop
endfacet
facet normal 0.0 0.9573186 0.28903475
outer loop
vertex 1.5009999 0.95105654 0.309017
vertex 1.5009999 0.96858317 0.24868989
vertex -0.001 0.95105654 0.309017
endloop
endfacet
facet normal 0.0 0.94437736 0.32886377
outer loop
vertex 1.5009999 0.9297765 0.36812454
vertex 1.5009999 0.95105654 0.309017
vertex -0.001 0.95105654 0.309017
endloop
endfacet
facet normal 0.0 0.9372809 0.3485749
outer loop
vertex 1.5009999 0.9297765 0.36812454
vertex -0.001 0.95105654 0.309017
vertex -0.001 0.9297765 0.36812454
endloop
endfacet
facet normal 0.0 0.92186433 0.38751274
outer loop
vertex 1.5009999 0.90482706 0.42577928
vertex 1.5009999 0.9297765 0.36812454
vertex -0.001 0.9297765 0.36812454
endloop
endfacet
facet normal 0.0 0.91354424 0.4067394
outer loop
vertex 1.5009999 0.90482706 0.42577928
vertex -0.001 0.9297765 0.36812454
vertex -0.001 0.90482706 0.42577928
endloop
endfacet
facet normal 0.0 0.89571315 0.4446324
outer loop
vertex 1.5009999 0.87630665 0.48175368
vertex 1.5009999 0.90482706 0.42577928
vertex -0.001 0.90482706 0.42577928
endloop
endfacet
facet normal 0.0 0.88620216 0.46329877
outer loop
vertex 1.5009999 0.87630665 0.48175368
vertex -0.001 0.90482706 0.42577928
vertex -0.001 0.87630665 0.48175368
endloop
endfacet
facet normal 0.0 0.86602694 0.49999735
outer loop
vertex 1.5009999 0.8443279 0.5358268
vertex 1.5009999 0.87630665 0.48175368
vertex -0.001 0.87630665 0.48175368
endloop
endfacet
facet normal 0.0 0.85536265 0.51802963
outer loop
vertex 1.5009999 0.8443279 0.5358268
vertex -0.001 0.87630665 0.48175368
vertex -0.001 0.8443279 0.5358268
endloop
endfacet
facet normal 0.0 0.83292294 0.553389
outer loop
vertex 1.5009999 0.809017 0.58778524
vertex 1.5009999 0.8443279 0.5358268
vertex -0.001 0.8443279 0.5358268
endloop
endfacet
facet normal 0.0 0.8211475 0.5707161
outer loop
vertex 1.5009999 0.809017 0.58778524
vertex -0.001 0.8443279 0.5358268
vertex -0.001 0.809017 0.58778524
endloop
endfacet
facet normal 0.0 0.7965318 0.6045967
outer loop
vertex 1.5009999 0.77051324 0.637424
vertex 1.5009999 0.809017 0.58778524
vertex -0.001 0.809017 0.58778524
endloop
endfacet
facet normal 0.0 0.7836916 0.6211502
outer loop
vertex 1.5009999 0.77051324 0.637424
vertex -0.001 0.809017 0.58778524
vertex -0.001 0.77051324 0.637424
endloop
endfacet
facet normal 0.0 0.7569971 0.65341824
outer loop
vertex 1.5009999 0.7289686 0.6845471
vertex 1.5009999 0.77051324 0.637424
vertex -0.001 0.77051324 0.637424
endloop
endfacet
facet normal 0.0 0.7431428 0.6691329
outer loop
vertex 1.5009999 0.7289686 0.6845471
vertex -0.001 0.77051324 0.637424
vertex -0.001 0.7289686 0.6845471
endloop
endfacet
facet normal 0.0 0.71447486 0.6996612
outer loop
vertex 1.5009999 0.6845471 0.7289686
vertex 1.5009999 0.7289686 0.6845471
vertex -0.001 0.7289686 0.6845471
endloop
endfacet
facet normal 0.0 0.6996612 0.71447486
outer loop
vertex 1.5009999 0.6845471 0.7289686
vertex -0.001 0.7289686 0.6845471
vertex -0.001 0.6845471 0.7289686
endloop
endfacet
facet normal 0.0 0.6691329 0.7431428
outer loop
vertex 1.5009999 0.637424 0.77051324
vertex 1.5009999 0.6845471 0.7289686
vertex -0.001 0.6845471 0.7289686
endloop
endfacet
facet normal 0.0 0.65341824 0.7569971
outer loop
vertex 1.5009999 0.637424 0.77051324
vertex -0.001 0.6845471 0.7289686
vertex -0.001 0.637424 0.77051324
endloop
endfacet
facet normal 0.0 0.6211502 0.7836916
outer loop
vertex 1.5009999 0.58778524 0.809017
vertex 1.5009999 0.637424 0.77051324
vertex -0.001 0.637424 0.77051324
endloop
endfacet
facet normal 0.0 0.6045967 0.7965318
outer loop
vertex 1.5009999 0.58778524 0.809017
vertex -0.001 0.637424 0.77051324
vertex -0.001 0.58778524 0.809017
endloop
endfacet
facet normal 0.0 0.5707161 0.8211475
outer loop
vertex 1.5009999 0.58778524 0.809017
vertex -0.001 0.58778524 0.809017
vertex -0.001 0.5358268 0.8443279
endloop
endfacet
facet normal 0.0 0.553389 0.83292294
outer loop
vertex 1.5009999 0.5358268 0.8443279
vertex 1.5009999 0.58778524 0.809017
vertex -0.001 0.5358268 0.8443279
endloop
endfacet
facet normal 0.0 0.49999735 0.86602694
outer loop
vertex 1.5009999 0.48175368 0.87630665
vertex -0.001 0.5358268 0.8443279
vertex -0.001 0.48175368 0.87630665
endloop
endfacet
facet normal 0.0 0.51802963 0.85536265
outer loop
vertex 1.5009999 0.48175368 0.87630665
vertex 1.5009999 0.5358268 0.8443279
vertex -0.001 0.5358268 0.8443279
endloop
endfacet
facet normal 0.0 0.4446324 0.89571315
outer loop
vertex 1.5009999 0.42577928 0.90482706
vertex -0.001 0.48175368 0.87630665
vertex -0.001 0.42577928 0.90482706
endloop
endfacet
facet normal 0.0 0.46329877 0.88620216
outer loop
vertex 1.5009999 0.42577928 0.90482706
vertex 1.5009999 0.48175368 0.87630665
vertex -0.001 0.48175368 0.87630665
endloop
endfacet
facet normal 0.0 0.38751274 0.92186433
outer loop
vertex 1.5009999 0.36812454 0.9297765
vertex -0.001 0.42577928 0.90482706
vertex -0.001 0.36812454 0.9297765
endloop
endfacet
facet normal 0.0 0.4067394 0.91354424
outer loop
vertex 1.5009999 0.36812454 0.9297765
vertex 1.5009999 0.42577928 0.90482706
vertex -0.001 0.42577928 0.90482706
endloop
endfacet
facet normal 0.0 0.32886377 0.94437736
outer loop
vertex 1.5009999 0.309017 0.95105654
vertex -0.001 0.36812454 0.9297765
vertex -0.001 0.309017 0.95105654
endloop
endfacet
facet normal 0.0 0.3485749 0.9372809
outer loop
vertex 1.5009999 0.309017 0.95105654
vertex 1.5009999 0.36812454 0.9297765
vertex -0.001 0.36812454 0.9297765
endloop
endfacet
facet normal 0.0 0.26891688 0.9631634
outer loop
vertex 1.5009999 0.24868989 0.96858317
vertex -0.001 0.309017 0.95105654
vertex -0.001 0.24868989 0.96858317
endloop
endfacet
facet normal 0.0 0.28903475 0.9573186
outer loop
vertex 1.5009999 0.24868989 0.96858317
vertex 1.5009999 0.309017 0.95105654
vertex -0.001 0.309017 0.95105654
endloop
endfacet
facet normal 0.0 0.2079087 0.9781482
outer loop
vertex 1.5009999 0.18738131 0.9822872
vertex -0.001 0.24868989 0.96858317
vertex -0.001 0.18738131 0.9822872
endloop
endfacet
facet normal 0.0 0.22835386 0.9735782
outer loop
vertex 1.5009999 0.18738131 0.9822872
vertex 1.5009999 0.24868989 0.96858317
vertex -0.001 0.24868989 0.96858317
endloop
endfacet
facet normal 0.0 0.14608 0.98927283
outer loop
vertex 1.5009999 0.12533323 0.9921147
vertex -0.001 0.18738131 0.9822872
vertex -0.001 0.12533323 0.9921147
endloop
endfacet
facet normal 0.0 0.16677177 0.98599553
outer loop
vertex 1.5009999 0.12533323 0.9921147
vertex 1.5009999 0.18738131 0.9822872
vertex -0.001 0.18738131 0.9822872
endloop
endfacet
facet normal 0.0 0.08367479 0.99649316
outer loop
vertex 1.5009999 0.06279052 0.9980267
vertex -0.001 0.12533323 0.9921147
vertex -0.001 0.06279052 0.9980267
endloop
endfacet
facet normal 0.0 0.1045315 0.9945215
outer loop
vertex 1.5009999 0.06279052 0.9980267
vertex 1.5009999 0.12533323 0.9921147
vertex -0.001 0.12533323 0.9921147
endloop
endfacet
facet normal 0.0 0.041878708 0.9991226
outer loop
vertex 1.5009999 1.8369701E-16 1.0
vertex 1.5009999 0.06279052 0.9980267
vertex -0.001 0.06279052 0.9980267
endloop
endfacet
facet normal 0.0 0.020939354 0.9997807
outer loop
vertex 1.5009999 1.8369701E-16 1.0
vertex -0.001 0.06279052 0.9980267
vertex -0.001 1.8369701E-16 1.0
endloop
endfacet
facet normal 0.0 -0.020939354 0.9997807
outer loop
vertex 1.5009999 -0.06279052 0.9980267
vertex 1.5009999 1.8369701E-16 1.0
vertex -0.001 1.8369701E-16 1.0
endloop
endfacet
facet normal 0.0 -0.041878708 0.9991226
outer loop
vertex 1.5009999 -0.06279052 0.9980267
vertex -0.001 1.8369701E-16 1.0
vertex -0.001 -0.06279052 0.9980267
endloop
endfacet
facet normal 0.0 -0.08367479 0.99649316
outer loop
vertex 1.5009999 -0.12533323 0.9921147
vertex 1.5009999 -0.06279052 0.9980267
vertex -0.001 -0.06279052 0.9980267
endloop
endfacet
facet normal 0.0 -0.1045315 0.9945215
outer loop
vertex 1.5009999 -0.12533323 0.9921147
vertex -0.001 -0.06279052 0.9980267
vertex -0.001 -0.12533323 0.9921147
endloop
endfacet
facet normal 0.0 -0.14608 0.98927283
outer loop
vertex 1.5009999 -0.18738131 0.9822872
vertex 1.5009999 -0.12533323 0.9921147
vertex -0.001 -0.12533323 0.9921147
endloop
endfacet
facet normal 0.0 -0.16677177 0.98599553
outer loop
vertex 1.5009999 -0.18738131 0.9822872
vertex -0.001 -0.12533323 0.9921147
vertex -0.001 -0.18738131 0.9822872
endloop
endfacet
facet normal 0.0 -0.2079087 0.9781482
outer loop
vertex 1.5009999 -0.24868989 0.96858317
vertex 1.5009999 -0.18738131 0.9822872
vertex -0.001 -0.18738131 0.9822872
endloop
endfacet
facet normal 0.0 -0.22835386 0.9735782
outer loop
vertex 1.5009999 -0.24868989 0.96858317
vertex -0.001 -0.18738131 0.9822872
vertex -0.001 -0.24868989 0.96858317
endloop
endfacet
facet normal 0.0 -0.26891688 0.9631634
outer loop
vertex 1.5009999 -0.309017 0.95105654
vertex 1.5009999 -0.24868989 0.96858317
vertex -0.001 -0.24868989 0.96858317
endloop
endfacet
facet normal 0.0 -0.28903475 0.9573186
outer loop
vertex 1.5009999 -0.309017 0.95105654
vertex -0.001 -0.24868989 0.96858317
vertex -0.001 -0.309017 0.95105654
endloop
endfacet
facet normal 0.0 -0.32886377 0.94437736
outer loop
vertex 1.5009999 -0.36812454 0.9297765
vertex 1.5009999 -0.309017 0.95105654
vertex -0.001 -0.309017 0.95105654
endloop
endfacet
facet normal 0.0 -0.3485749 0.9372809
outer loop
vertex 1.5009999 -0.36812454 0.9297765
vertex -0.001 -0.309017 0.95105654
vertex -0.001 -0.36812454 0.9297765
endloop
endfacet
facet normal 0.0 -0.38751274 0.92186433
outer loop
vertex 1.5009999 -0.42577928 0.90482706
vertex 1.5009999 -0.36812454 0.9297765
vertex -0.001 -0.36812454 0.9297765
endloop
endfacet
facet normal 0.0 -0.4067394 0.91354424
outer loop
vertex 1.5009999 -0.42577928 0.90482706
vertex -0.001 -0.36812454 0.9297765
vertex -0.001 -0.42577928 0.90482706
endloop
endfacet
facet normal 0.0 -0.4446324 0.89571315
outer loop
vertex 1.5009999 -0.48175368 0.87630665
vertex 1.5009999 -0.42577928 0.90482706
vertex -0.001 -0.42577928 0.90482706
endloop
endfacet
facet normal 0.0 -0.46329877 0.88620216
outer loop
vertex 1.5009999 -0.48175368 0.87630665
vertex -0.001 -0.42577928 0.90482706
vertex -0.001 -0.48175368 0.87630665
endloop
endfacet
facet normal 0.0 -0.49999735 0.86602694
outer loop
vertex 1.5009999 -0.5358268 0.8443279
vertex 1.5009999 -0.48175368 0.87630665
vertex -0.001 -0.48175368 0.87630665
endloop
endfacet
facet normal 0.0 -0.51802963 0.85536265
outer loop
vertex 1.5009999 -0.5358268 0.8443279
vertex -0.001 -0.48175368 0.87630665
vertex -0.001 -0.5358268 0.8443279
endloop
endfacet
facet normal 0.0 -0.553389 0.83292294
outer loop
vertex 1.5009999 -0.58778524 0.809017
vertex 1.5009999 -0.5358268 0.8443279
vertex -0.001 -0.5358268 0.8443279
endloop
endfacet
facet normal 0.0 -0.5707161 0.8211475
outer loop
vertex 1.5009999 -0.58778524 0.809017
vertex -0.001 -0.5358268 0.8443279
vertex -0.001 -0.58778524 0.809017
endloop
endfacet
facet normal 0.0 -0.6045967 0.7965318
outer loop
vertex 1.5009999 -0.637424 0.77051324
vertex 1.5009999 -0.58778524 0.809017
vertex -0.001 -0.58778524 0.809017
endloop
endfacet
facet normal 0.0 -0.6211502 0.7836916
outer loop
vertex 1.5009999 -0.637424 0.77051324
vertex -0.001 -0.58778524 0.809017
vertex -0.001 -0.637424 0.77051324
endloop
endfacet
facet normal 0.0 -0.65341824 0.756997
outer loop
vertex 1.5009999 -0.637424 0.77051324
vertex -0.001 -0.637424 0.77051324
vertex -0.001 -0.6845471 0.7289686
endloop
endfacet
facet normal 0.0 -0.6691329 0.7431428
outer loop
vertex 1.5009999 -0.6845471 0.7289686
vertex 1.5009999 -0.637424 0.77051324
vertex -0.001 -0.6845471 0.7289686
endloop
endfacet
facet normal 0.0 -0.6996612 0.71447486
outer loop
vertex 1.5009999 -0.7289686 0.6845471
vertex 1.5009999 -0.6845471 0.7289686
vertex -0.001 -0.6845471 0.7289686
endloop
endfacet
facet normal 0.0 -0.71447486 0.6996612
outer loop
vertex 1.5009999 -0.7289686 0.6845471
vertex -0.001 -0.6845471 0.7289686
vertex -0.001 -0.7289686 0.6845471
endloop
endfacet
facet normal 0.0 -0.7431428 0.6691329
outer loop
vertex 1.5009999 -0.77051324 0.637424
vertex 1.5009999 -0.7289686 0.6845471
vertex -0.001 -0.7289686 0.6845471
endloop
endfacet
facet normal 0.0 -0.7569971 0.65341824
outer loop
vertex 1.5009999 -0.77051324 0.637424
vertex -0.001 -0.7289686 0.6845471
vertex -0.001 -0.77051324 0.637424
endloop
endfacet
facet normal 0.0 -0.7836916 0.6211502
outer loop
vertex 1.5009999 -0.809017 0.58778524
vertex 1.5009999 -0.77051324 0.637424
vertex -0.001 -0.77051324 0.637424
endloop
endfacet
facet normal 0.0 -0.7965318 0.6045967
outer loop
vertex 1.5009999 -0.809017 0.58778524
vertex -0.001 -0.77051324 0.637424
vertex -0.001 -0.809017 0.58778524
endloop
endfacet
facet normal 0.0 -0.8211475 0.5707161
outer loop
vertex 1.5009999 -0.8443279 0.5358268
vertex 1.5009999 -0.809017 0.58778524
vertex -0.001 -0.809017 0.58778524
endloop
endfacet
facet normal 0.0 -0.83292294 0.553389
outer loop
vertex 1.5009999 -0.8443279 0.5358268
vertex -0.001 -0.809017 0.58778524
vertex -0.001 -0.8443279 0.5358268
endloop
endfacet
facet normal 0.0 -0.85536265 0.51802963
outer loop
vertex 1.5009999 -0.87630665 0.48175368
vertex 1.5009999 -0.8443279 0.5358268
vertex -0.001 -0.8443279 0.5358268
endloop
endfacet
facet normal 0.0 -0.86602694 0.49999735
outer loop
vertex 1.5009999 -0.87630665 0.48175368
vertex -0.001 -0.8443279 0.5358268
vertex -0.001 -0.87630665 0.48175368
endloop
endfacet
facet normal 0.0 -0.88620216 0.46329877
outer loop
vertex 1.5009999 -0.90482706 0.42577928
vertex 1.5009999 -0.87630665 0.48175368
vertex -0.001 -0.87630665 0.48175368
endloop
endfacet
facet normal 0.0 -0.89571315 0.4446324
outer loop
vertex 1.5009999 -0.90482706 0.42577928
vertex -0.001 -0.87630665 0.48175368
vertex -0.001 -0.90482706 0.42577928
endloop
endfacet
facet normal 0.0 -0.91354424 0.4067394
outer loop
vertex 1.5009999 -0.9297765 0.36812454
vertex 1.5009999 -0.90482706 0.42577928
vertex -0.001 -0.90482706 0.42577928
endloop
endfacet
facet normal 0.0 -0.92186433 0.38751274
outer loop
vertex 1.5009999 -0.9297765 0.36812454
vertex -0.001 -0.90482706 0.42577928
vertex -0.001 -0.9297765 0.36812454
endloop
endfacet
facet normal 0.0 -0.9372809 0.3485749
outer loop
vertex 1.5009999 -0.95105654 0.309017
vertex 1.5009999 -0.9297765 0.36812454
vertex -0.001 -0.9297765 0.36812454
endloop
endfacet
facet normal 0.0 -0.94437736 0.32886377
outer loop
vertex 1.5009999 -0.95105654 0.309017
vertex -0.001 -0.9297765 0.36812454
vertex -0.001 -0.95105654 0.309017
endloop
endfacet
facet normal 0.0 -0.9573186 0.28903475
outer loop
vertex 1.5009999 -0.96858317 0.24868989
vertex 1.5009999 -0.95105654 0.309017
vertex -0.001 -0.95105654 0.309017
endloop
endfacet
facet normal 0.0 -0.9631634 0.26891688
outer loop
vertex 1.5009999 -0.96858317 0.24868989
vertex -0.001 -0.95105654 0.309017
vertex -0.001 -0.96858317 0.24868989
endloop
endfacet
facet normal 0.0 -0.9735782 0.22835386
outer loop
vertex 1.5009999 -0.9822872 0.18738131
vertex 1.5009999 -0.96858317 0.24868989
vertex -0.001 -0.96858317 0.24868989
endloop
endfacet
facet normal 0.0 -0.9781482 0.2079087
outer loop
vertex 1.5009999 -0.9822872 0.18738131
vertex -0.001 -0.96858317 0.24868989
vertex -0.001 -0.9822872 0.18738131
endloop
endfacet
facet normal 0.0 -0.98599553 0.16677177
outer loop
vertex 1.5009999 -0.9921147 0.12533323
vertex 1.5009999 -0.9822872 0.18738131
vertex -0.001 -0.9822872 0.18738131
endloop
endfacet
facet normal 0.0 -0.98927283 0.14608
outer loop
vertex 1.5009999 -0.9921147 0.12533323
vertex -0.001 -0.9822872 0.18738131
vertex -0.001 -0.9921147 0.12533323
endloop
endfacet
facet normal 0.0 -0.99649316 0.08367479
outer loop
vertex 1.5009999 -0.9980267 0.06279052
vertex -0.001 -0.9921147 0.12533323
vertex -0.001 -0.9980267 0.06279052
endloop
endfacet
facet normal 0.0 -0.9945215 0.1045315
outer loop
vertex 1.5009999 -0.9980267 0.06279052
vertex 1.5009999 -0.9921147 0.12533323
vertex -0.001 -0.9921147 0.12533323
endloop
endfacet
facet normal 0.0 -0.9991226 0.041878708
outer loop
vertex 1.5009999 -0.9980267 0.06279052
vertex -0.001 -0.9980267 0.06279052
vertex -0.001 -1.0 2.4492937E-16
endloop
endfacet
facet normal 0.0 -0.9997807 0.020939354
outer loop
vertex 1.5009999 -1.0 2.4492937E-16
vertex 1.5009999 -0.9980267 0.06279052
vertex -0.001 -1.0 2.4492937E-16
endloop
endfacet
endsolid cylinder
solid disk2
facet normal 1.0 0.0 0.0
outer loop
vertex 1.5009999 0.8443279 0.5358268
vertex 1.5009999 0.809017 0.58778524
vertex 1.5009999 0.77051324 0.637424
endloop
endfacet
facet normal 1.0 0.0 0.0
outer loop
vertex 1.5009999 0.8443279 0.5358268
vertex 1.5009999 0.77051324 0.637424
vertex 1.5009999 0.7289686 0.6845471
endloop
endfacet
facet normal 1.0 0.0 0.0
outer loop
vertex 1.5009999 0.8443279 0.5358268
vertex 1.5009999 0.7289686 0.6845471
vertex 1.5009999 0.6845471 0.7289686
endloop
endfacet
facet normal 1.0 0.0 0.0
outer loop
vertex 1.5009999 0.87630665 0.48175368
vertex 1.5009999 0.8443279 0.5358268
vertex 1.5009999 0.6845471 0.7289686
endloop
endfacet
facet normal 1.0 0.0 0.0
outer loop
vertex 1.5009999 0.42577928 0.90482706
vertex 1.5009999 0.6845471 0.7289686
vertex 1.5009999 0.637424 0.77051324
endloop
endfacet
facet normal 1.0 0.0 0.0
outer loop
vertex 1.5009999 0.42577928 0.90482706
vertex 1.5009999 0.637424 0.77051324
vertex 1.5009999 0.58778524 0.809017
endloop
endfacet
facet normal 1.0 0.0 0.0
outer loop
vertex 1.5009999 0.42577928 0.90482706
vertex 1.5009999 0.58778524 0.809017
vertex 1.5009999 0.5358268 0.8443279
endloop
endfacet
facet normal 1.0 0.0 0.0
outer loop
vertex 1.5009999 0.42577928 0.90482706
vertex 1.5009999 0.5358268 0.8443279
vertex 1.5009999 0.48175368 0.87630665
endloop
endfacet
facet normal 1.0 0.0 0.0
outer loop
vertex 1.5009999 0.36812454 0.9297765
vertex 1.5009999 0.6845471 0.7289686
vertex 1.5009999 0.42577928 0.90482706
endloop
endfacet
facet normal 1.0 0.0 0.0
outer loop
vertex 1.5009999 0.95105654 0.309017
vertex 1.5009999 0.87630665 0.48175368
vertex 1.5009999 0.6845471 0.7289686
endloop
endfacet
facet normal 1.0 0.0 0.0
outer loop
vertex 1.5009999 0.95105654 0.309017
vertex 1.5009999 0.9297765 0.36812454
vertex 1.5009999 0.90482706 0.42577928
endloop
endfacet
facet normal 1.0 0.0 0.0
outer loop
vertex 1.5009999 0.95105654 0.309017
vertex 1.5009999 0.90482706 0.42577928
vertex 1.5009999 0.87630665 0.48175368
endloop
endfacet
facet normal 1.0 0.0 0.0
outer loop
vertex 1.5009999 0.9822872 0.18738131
vertex 1.5009999 0.96858317 0.24868989
vertex 1.5009999 0.95105654 0.309017
endloop
endfacet
facet normal 1.0 0.0 0.0
outer loop
vertex 1.5009999 0.18738131 0.9822872
vertex 1.5009999 0.36812454 0.9297765
vertex 1.5009999 0.309017 0.95105654
endloop
endfacet
facet normal 1.0 0.0 0.0
outer loop
vertex 1.5009999 0.18738131 0.9822872
vertex 1.5009999 0.309017 0.95105654
vertex 1.5009999 0.24868989 0.96858317
endloop
endfacet
facet normal 1.0 0.0 0.0
outer loop
vertex 1.5009999 0.12533323 0.9921147
vertex 1.5009999 0.95105654 0.309017
vertex 1.5009999 0.6845471 0.7289686
endloop
endfacet
facet normal 1.0 0.0 0.0
outer loop
vertex 1.5009999 0.12533323 0.9921147
vertex 1.5009999 0.6845471 0.7289686
vertex 1.5009999 0.36812454 0.9297765
endloop
endfacet
facet normal 1.0 0.0 0.0
outer loop
vertex 1.5009999 0.12533323 0.9921147
vertex 1.5009999 0.36812454 0.9297765
vertex 1.5009999 0.18738131 0.9822872
endloop
endfacet
facet normal 1.0 0.0 0.0
outer loop
vertex 1.5009999 1.0 2.5420706E-15
vertex 1.5009999 0.9980267 0.06279052
vertex 1.5009999 0.9921147 0.12533323
endloop
endfacet
facet normal 1.0 0.0 0.0
outer loop
vertex 1.5009999 1.0 2.5420706E-15
vertex 1.5009999 0.9921147 0.12533323
vertex 1.5009999 0.9822872 0.18738131
endloop
endfacet
facet normal 1.0 0.0 0.0
outer loop
vertex 1.5009999 0.9980267 -0.06279052
vertex 1.5009999 0.9822872 0.18738131
vertex 1.5009999 0.95105654 0.309017
endloop
endfacet
facet normal 1.0 0.0 0.0
outer loop
vertex 1.5009999 0.9980267 -0.06279052
vertex 1.5009999 1.0 2.5420706E-15
vertex 1.5009999 0.9822872 0.18738131
endloop
endfacet
facet normal 1.0 0.0 0.0
outer loop
vertex 1.5009999 -0.12533323 0.9921147
vertex 1.5009999 1.8369701E-16 1.0
vertex 1.5009999 -0.06279052 0.9980267
endloop
endfacet
facet normal 1.0 0.0 0.0
outer loop
vertex 1.5009999 0.9822872 -0.18738131
vertex 1.5009999 0.95105654 0.309017
vertex 1.5009999 0.12533323 0.9921147
endloop
endfacet
facet normal 1.0 0.0 0.0
outer loop
vertex 1.5009999 0.9822872 -0.18738131
vertex 1.5009999 0.9921147 -0.12533323
vertex 1.5009999 0.9980267 -0.06279052
endloop
endfacet
facet normal 1.0 0.0 0.0
outer loop
vertex 1.5009999 0.9822872 -0.18738131
vertex 1.5009999 0.9980267 -0.06279052
vertex 1.5009999 0.95105654 0.309017
endloop
endfacet
facet normal 1.0 0.0 0.0
outer loop
vertex 1.5009999 0.9822872 -0.18738131
vertex 1.5009999 0.12533323 0.9921147
vertex 1.5009999 0.06279052 0.9980267
endloop
endfacet
facet normal 1.0 0.0 0.0
outer loop
vertex 1.5009999 -0.18738131 0.9822872
vertex 1.5009999 1.8369701E-16 1.0
vertex 1.5009999 -0.12533323 0.9921147
endloop
endfacet
facet normal 1.0 0.0 0.0
outer loop
vertex 1.5009999 0.95105654 -0.309017
vertex 1.5009999 0.96858317 -0.24868989
vertex 1.5009999 0.9822872 -0.18738131
endloop
endfacet
facet normal 1.0 0.0 0.0
outer loop
vertex 1.5009999 -0.309017 0.95105654
vertex 1.5009999 -0.18738131 0.9822872
vertex 1.5009999 -0.24868989 0.96858317
endloop
endfacet
facet normal 1.0 0.0 0.0
outer loop
vertex 1.5009999 -0.36812454 0.9297765
vertex 1.5009999 1.8369701E-16 1.0
vertex 1.5009999 -0.18738131 0.9822872
endloop
endfacet
facet normal 1.0 0.0 0.0
outer loop
vertex 1.5009999 -0.36812454 0.9297765
vertex 1.5009999 -0.18738131 0.9822872
vertex 1.5009999 -0.309017 0.95105654
endloop
endfacet
facet normal 1.0 0.0 0.0
outer loop
vertex 1.5009999 -0.36812454 0.9297765
vertex 1.5009999 0.06279052 0.9980267
vertex 1.5009999 1.8369701E-16 1.0
endloop
endfacet
facet normal 1.0 0.0 0.0
outer loop
vertex 1.5009999 0.9297765 -0.36812454
vertex 1.5009999 0.95105654 -0.309017
vertex 1.5009999 0.9822872 -0.18738131
endloop
endfacet
facet normal 1.0 0.0 0.0
outer loop
vertex 1.5009999 0.9297765 -0.36812454
vertex 1.5009999 0.9822872 -0.18738131
vertex 1.5009999 0.06279052 0.9980267
endloop
endfacet
facet normal 1.0 0.0 0.0
outer loop
vertex 1.5009999 -0.48175368 0.87630665
vertex 1.5009999 0.06279052 0.9980267
vertex 1.5009999 -0.36812454 0.9297765
endloop
endfacet
facet normal 1.0 0.0 0.0
outer loop
vertex 1.5009999 -0.48175368 0.87630665
vertex 1.5009999 0.9297765 -0.36812454
vertex 1.5009999 0.06279052 0.9980267
endloop
endfacet
facet normal 1.0 0.0 0.0
outer loop
vertex 1.5009999 -0.48175368 0.87630665
vertex 1.5009999 -0.36812454 0.9297765
vertex 1.5009999 -0.42577928 0.90482706
endloop
endfacet
facet normal 1.0 0.0 0.0
outer loop
vertex 1.5009999 0.809017 -0.58778524
vertex 1.5009999 0.8443279 -0.5358268
vertex 1.5009999 0.87630665 -0.48175368
endloop
endfacet
facet normal 1.0 0.0 0.0
outer loop
vertex 1.5009999 -0.637424 0.77051324
vertex 1.5009999 -0.48175368 0.87630665
vertex 1.5009999 -0.5358268 0.8443279
endloop
endfacet
facet normal 1.0 0.0 0.0
outer loop
vertex 1.5009999 -0.637424 0.77051324
vertex 1.5009999 -0.5358268 0.8443279
vertex 1.5009999 -0.58778524 0.809017
endloop
endfacet
facet normal 1.0 0.0 0.0
outer loop
vertex 1.5009999 0.77051324 -0.637424
vertex 1.5009999 0.87630665 -0.48175368
vertex 1.5009999 0.90482706 -0.42577928
endloop
endfacet
facet normal 1.0 0.0 0.0
outer loop
vertex 1.5009999 0.77051324 -0.637424
vertex 1.5009999 0.90482706 -0.42577928
vertex 1.5009999 0.9297765 -0.36812454
endloop
endfacet
facet normal 1.0 0.0 0.0
outer loop
vertex 1.5009999 0.77051324 -0.637424
vertex 1.5009999 0.809017 -0.58778524
vertex 1.5009999 0.87630665 -0.48175368
endloop
endfacet
facet normal 1.0 0.0 0.0
outer loop
vertex 1.5009999 -0.6845471 0.7289686
vertex 1.5009999 -0.48175368 0.87630665
vertex 1.5009999 -0.637424 0.77051324
endloop
endfacet
facet normal 1.0 0.0 0.0
outer loop
vertex 1.5009999 -0.7289686 0.6845471
vertex 1.5009999 -0.48175368 0.87630665
vertex 1.5009999 -0.6845471 0.7289686
endloop
endfacet
facet normal 1.0 0.0 0.0
outer loop
vertex 1.5009999 0.6845471 -0.7289686
vertex 1.5009999 0.7289686 -0.6845471
vertex 1.5009999 0.77051324 -0.637424
endloop
endfacet
facet normal 1.0 0.0 0.0
outer loop
vertex 1.5009999 0.5358268 -0.8443279
vertex 1.5009999 -0.48175368 0.87630665
vertex 1.5009999 -0.7289686 0.6845471
endloop
endfacet
facet normal 1.0 0.0 0.0
outer loop
vertex 1.5009999 0.5358268 -0.8443279
vertex 1.5009999 0.6845471 -0.7289686
vertex 1.5009999 0.77051324 -0.637424
endloop
endfacet
facet normal 1.0 0.0 0.0
outer loop
vertex 1.5009999 0.5358268 -0.8443279
vertex 1.5009999 0.58778524 -0.809017
vertex 1.5009999 0.637424 -0.77051324
endloop
endfacet
facet normal 1.0 0.0 0.0
outer loop
vertex 1.5009999 0.5358268 -0.8443279
vertex 1.5009999 0.637424 -0.77051324
vertex 1.5009999 0.6845471 -0.7289686
endloop
endfacet
facet normal 1.0 0.0 0.0
outer loop
vertex 1.5009999 0.5358268 -0.8443279
vertex 1.5009999 0.9297765 -0.36812454
vertex 1.5009999 -0.48175368 0.87630665
endloop
endfacet
facet normal 1.0 0.0 0.0
outer loop
vertex 1.5009999 0.5358268 -0.8443279
vertex 1.5009999 0.77051324 -0.637424
vertex 1.5009999 0.9297765 -0.36812454
endloop
endfacet
facet normal 1.0 0.0 0.0
outer loop
vertex 1.5009999 -0.90482706 0.42577928
vertex 1.5009999 -0.8443279 0.5358268
vertex 1.5009999 -0.87630665 0.48175368
endloop
endfacet
facet normal 1.0 0.0 0.0
outer loop
vertex 1.5009999 -0.9297765 0.36812454
vertex 1.5009999 -0.8443279 0.5358268
vertex 1.5009999 -0.90482706 0.42577928
endloop
endfacet
facet normal 1.0 0.0 0.0
outer loop
vertex 1.5009999 -0.9297765 0.36812454
vertex 1.5009999 -0.809017 0.58778524
vertex 1.5009999 -0.8443279 0.5358268
endloop
endfacet
facet normal 1.0 0.0 0.0
outer loop
vertex 1.5009999 0.36812454 -0.9297765
vertex 1.5009999 0.42577928 -0.90482706
vertex 1.5009999 0.48175368 -0.87630665
endloop
endfacet
facet normal 1.0 0.0 0.0
outer loop
vertex 1.5009999 0.309017 -0.95105654
vertex 1.5009999 0.36812454 -0.9297765
vertex 1.5009999 0.48175368 -0.87630665
endloop
endfacet
facet normal 1.0 0.0 0.0
outer loop
vertex 1.5009999 0.309017 -0.95105654
vertex 1.5009999 0.48175368 -0.87630665
vertex 1.5009999 0.5358268 -0.8443279
endloop
endfacet
facet normal 1.0 0.0 0.0
outer loop
vertex 1.5009999 -0.9822872 0.18738131
vertex 1.5009999 -0.809017 0.58778524
vertex 1.5009999 -0.9297765 0.36812454
endloop
endfacet
facet normal 1.0 0.0 0.0
outer loop
vertex 1.5009999 -0.9822872 0.18738131
vertex 1.5009999 -0.9297765 0.36812454
vertex 1.5009999 -0.95105654 0.309017
endloop
endfacet
facet normal 1.0 0.0 0.0
outer loop
vertex 1.5009999 -0.9822872 0.18738131
vertex 1.5009999 -0.95105654 0.309017
vertex 1.5009999 -0.96858317 0.24868989
endloop
endfacet
facet normal 1.0 0.0 0.0
outer loop
vertex 1.5009999 -0.9921147 0.12533323
vertex 1.5009999 -0.809017 0.58778524
vertex 1.5009999 -0.9822872 0.18738131
endloop
endfacet
facet normal 1.0 0.0 0.0
outer loop
vertex 1.5009999 -0.9980267 0.06279052
vertex 1.5009999 -0.809017 0.58778524
vertex 1.5009999 -0.9921147 0.12533323
endloop
endfacet
facet normal 1.0 0.0 0.0
outer loop
vertex 1.5009999 -0.9980267 0.06279052
vertex 1.5009999 -0.7289686 0.6845471
vertex 1.5009999 -0.77051324 0.637424
endloop
endfacet
facet normal 1.0 0.0 0.0
outer loop
vertex 1.5009999 -0.9980267 0.06279052
vertex 1.5009999 -0.77051324 0.637424
vertex 1.5009999 -0.809017 0.58778524
endloop
endfacet
facet normal 1.0 0.0 0.0
outer loop
vertex 1.5009999 0.06279052 -0.9980267
vertex 1.5009999 0.12533323 -0.9921147
vertex 1.5009999 0.18738131 -0.9822872
endloop
endfacet
facet normal 1.0 0.0 0.0
outer loop
vertex 1.5009999 0.06279052 -0.9980267
vertex 1.5009999 0.18738131 -0.9822872
vertex 1.5009999 0.24868989 -0.96858317
endloop
endfacet
facet normal 1.0 0.0 0.0
outer loop
vertex 1.5009999 0.06279052 -0.9980267
vertex 1.5009999 0.24868989 -0.96858317
vertex 1.5009999 0.309017 -0.95105654
endloop
endfacet
facet normal 1.0 0.0 0.0
outer loop
vertex 1.5009999 -0.12533323 -0.9921147
vertex 1.5009999 -0.06279052 -0.9980267
vertex 1.5009999 6.049015E-16 -1.0
endloop
endfacet
facet normal 1.0 0.0 0.0
outer loop
vertex 1.5009999 -0.12533323 -0.9921147
vertex 1.5009999 6.049015E-16 -1.0
vertex 1.5009999 0.06279052 -0.9980267
endloop
endfacet
facet normal 1.0 0.0 0.0
outer loop
vertex 1.5009999 -0.24868989 -0.96858317
vertex 1.5009999 -0.18738131 -0.9822872
vertex 1.5009999 -0.12533323 -0.9921147
endloop
endfacet
facet normal 1.0 0.0 0.0
outer loop
vertex 1.5009999 -0.95105654 -0.309017
vertex 1.5009999 -1.0 2.4492937E-16
vertex 1.5009999 -0.9980267 -0.06279052
endloop
endfacet
facet normal 1.0 0.0 0.0
outer loop
vertex 1.5009999 -0.95105654 -0.309017
vertex 1.5009999 -0.9980267 -0.06279052
vertex 1.5009999 -0.9921147 -0.12533323
endloop
endfacet
facet normal 1.0 0.0 0.0
outer loop
vertex 1.5009999 -0.95105654 -0.309017
vertex 1.5009999 -0.9921147 -0.12533323
vertex 1.5009999 -0.9822872 -0.18738131
endloop
endfacet
facet normal 1.0 0.0 0.0
outer loop
vertex 1.5009999 -0.95105654 -0.309017
vertex 1.5009999 -0.9822872 -0.18738131
vertex 1.5009999 -0.96858317 -0.24868989
endloop
endfacet
facet normal 1.0 0.0 0.0
outer loop
vertex 1.5009999 -0.95105654 -0.309017
vertex 1.5009999 0.5358268 -0.8443279
vertex 1.5009999 -0.7289686 0.6845471
endloop
endfacet
facet normal 1.0 0.0 0.0
outer loop
vertex 1.5009999 -0.95105654 -0.309017
vertex 1.5009999 0.309017 -0.95105654
vertex 1.5009999 0.5358268 -0.8443279
endloop
endfacet
facet normal 1.0 0.0 0.0
outer loop
vertex 1.5009999 -0.95105654 -0.309017
vertex 1.5009999 -0.7289686 0.6845471
vertex 1.5009999 -0.9980267 0.06279052
endloop
endfacet
facet normal 1.0 0.0 0.0
outer loop
vertex 1.5009999 -0.95105654 -0.309017
vertex 1.5009999 -0.9980267 0.06279052
vertex 1.5009999 -1.0 2.4492937E-16
endloop
endfacet
facet normal 1.0 0.0 0.0
outer loop
vertex 1.5009999 -0.36812454 -0.9297765
vertex 1.5009999 -0.309017 -0.95105654
vertex 1.5009999 -0.24868989 -0.96858317
endloop
endfacet
facet normal 1.0 0.0 0.0
outer loop
vertex 1.5009999 -0.42577928 -0.90482706
vertex 1.5009999 -0.95105654 -0.309017
vertex 1.5009999 -0.9297765 -0.36812454
endloop
endfacet
facet normal 1.0 0.0 0.0
outer loop
vertex 1.5009999 -0.42577928 -0.90482706
vertex 1.5009999 -0.9297765 -0.36812454
vertex 1.5009999 -0.90482706 -0.42577928
endloop
endfacet
facet normal 1.0 0.0 0.0
outer loop
vertex 1.5009999 -0.42577928 -0.90482706
vertex 1.5009999 -0.12533323 -0.9921147
vertex 1.5009999 0.06279052 -0.9980267
endloop
endfacet
facet normal 1.0 0.0 0.0
outer loop
vertex 1.5009999 -0.42577928 -0.90482706
vertex 1.5009999 0.06279052 -0.9980267
vertex 1.5009999 0.309017 -0.95105654
endloop
endfacet
facet normal 1.0 0.0 0.0
outer loop
vertex 1.5009999 -0.42577928 -0.90482706
vertex 1.5009999 0.309017 -0.95105654
vertex 1.5009999 -0.95105654 -0.309017
endloop
endfacet
facet normal 1.0 0.0 0.0
outer loop
vertex 1.5009999 -0.42577928 -0.90482706
vertex 1.5009999 -0.36812454 -0.9297765
vertex 1.5009999 -0.24868989 -0.96858317
endloop
endfacet
facet normal 1.0 0.0 0.0
outer loop
vertex 1.5009999 -0.42577928 -0.90482706
vertex 1.5009999 -0.24868989 -0.96858317
vertex 1.5009999 -0.12533323 -0.9921147
endloop
endfacet
facet normal 1.0 0.0 0.0
outer loop
vertex 1.5009999 -0.5358268 -0.8443279
vertex 1.5009999 -0.48175368 -0.87630665
vertex 1.5009999 -0.42577928 -0.90482706
endloop
endfacet
facet normal 1.0 0.0 0.0
outer loop
vertex 1.5009999 -0.5358268 -0.8443279
vertex 1.5009999 -0.42577928 -0.90482706
vertex 1.5009999 -0.90482706 -0.42577928
endloop
endfacet
facet normal 1.0 0.0 0.0
outer loop
vertex 1.5009999 -0.809017 -0.58778524
vertex 1.5009999 -0.87630665 -0.48175368
vertex 1.5009999 -0.8443279 -0.5358268
endloop
endfacet
facet normal 1.0 0.0 0.0
outer loop
vertex 1.5009999 -0.637424 -0.77051324
vertex 1.5009999 -0.58778524 -0.809017
vertex 1.5009999 -0.5358268 -0.8443279
endloop
endfacet
facet normal 1.0 0.0 0.0
outer loop
vertex 1.5009999 -0.7289686 -0.6845471
vertex 1.5009999 -0.90482706 -0.42577928
vertex 1.5009999 -0.87630665 -0.48175368
endloop
endfacet
facet normal 1.0 0.0 0.0
outer loop
vertex 1.5009999 -0.7289686 -0.6845471
vertex 1.5009999 -0.809017 -0.58778524
vertex 1.5009999 -0.77051324 -0.637424
endloop
endfacet
facet normal 1.0 0.0 0.0
outer loop
vertex 1.5009999 -0.7289686 -0.6845471
vertex 1.5009999 -0.87630665 -0.48175368
vertex 1.5009999 -0.809017 -0.58778524
endloop
endfacet
facet normal 1.0 0.0 0.0
outer loop
vertex 1.5009999 -0.6845471 -0.7289686
vertex 1.5009999 -0.5358268 -0.8443279
vertex 1.5009999 -0.90482706 -0.42577928
endloop
endfacet
facet normal 1.0 0.0 0.0
outer loop
vertex 1.5009999 -0.6845471 -0.7289686
vertex 1.5009999 -0.90482706 -0.42577928
vertex 1.5009999 -0.7289686 -0.6845471
endloop
endfacet
facet normal 1.0 0.0 0.0
outer loop
vertex 1.5009999 -0.6845471 -0.7289686
vertex 1.5009999 -0.637424 -0.77051324
vertex 1.5009999 -0.5358268 -0.8443279
endloop
endfacet
endsolid disk2
solid disk1
facet normal -1.0 0.0 0.0
outer loop
vertex -0.001 0.77051324 0.637424
vertex -0.001 0.809017 0.58778524
vertex -0.001 0.8443279 0.5358268
endloop
endfacet
facet normal -1.0 0.0 0.0
outer loop
vertex -0.001 0.7289686 0.6845471
vertex -0.001 0.77051324 0.637424
vertex -0.001 0.8443279 0.5358268
endloop
endfacet
facet normal -1.0 0.0 0.0
outer loop
vertex -0.001 0.6845471 0.7289686
vertex -0.001 0.7289686 0.6845471
vertex -0.001 0.8443279 0.5358268
endloop
endfacet
facet normal -1.0 0.0 0.0
outer loop
vertex -0.001 0.6845471 0.7289686
vertex -0.001 0.8443279 0.5358268
vertex -0.001 0.87630665 0.48175368
endloop
endfacet
facet normal -1.0 0.0 0.0
outer loop
vertex -0.001 0.637424 0.77051324
vertex -0.001 0.6845471 0.7289686
vertex -0.001 0.42577928 0.90482706
endloop
endfacet
facet normal -1.0 0.0 0.0
outer loop
vertex -0.001 0.58778524 0.809017
vertex -0.001 0.637424 0.77051324
vertex -0.001 0.42577928 0.90482706
endloop
endfacet
facet normal -1.0 0.0 0.0
outer loop
vertex -0.001 0.5358268 0.8443279
vertex -0.001 0.58778524 0.809017
vertex -0.001 0.42577928 0.90482706
endloop
endfacet
facet normal -1.0 0.0 0.0
outer loop
vertex -0.001 0.48175368 0.87630665
vertex -0.001 0.5358268 0.8443279
vertex -0.001 0.42577928 0.90482706
endloop
endfacet
facet normal -1.0 0.0 0.0
outer loop
vertex -0.001 0.42577928 0.90482706
vertex -0.001 0.6845471 0.7289686
vertex -0.001 0.36812454 0.9297765
endloop
endfacet
facet normal -1.0 0.0 0.0
outer loop
vertex -0.001 0.6845471 0.7289686
vertex -0.001 0.87630665 0.48175368
vertex -0.001 0.95105654 0.309017
endloop
endfacet
facet normal -1.0 0.0 0.0
outer loop
vertex -0.001 0.90482706 0.42577928
vertex -0.001 0.9297765 0.36812454
vertex -0.001 0.95105654 0.309017
endloop
endfacet
facet normal -1.0 0.0 0.0
outer loop
vertex -0.001 0.87630665 0.48175368
vertex -0.001 0.90482706 0.42577928
vertex -0.001 0.95105654 0.309017
endloop
endfacet
facet normal -1.0 0.0 0.0
outer loop
vertex -0.001 0.95105654 0.309017
vertex -0.001 0.96858317 0.24868989
vertex -0.001 0.9822872 0.18738131
endloop
endfacet
facet normal -1.0 0.0 0.0
outer loop
vertex -0.001 0.309017 0.95105654
vertex -0.001 0.36812454 0.9297765
vertex -0.001 0.18738131 0.9822872
endloop
endfacet
facet normal -1.0 0.0 0.0
outer loop
vertex -0.001 0.24868989 0.96858317
vertex -0.001 0.309017 0.95105654
vertex -0.001 0.18738131 0.9822872
endloop
endfacet
facet normal -1.0 0.0 0.0
outer loop
vertex -0.001 0.6845471 0.7289686
vertex -0.001 0.95105654 0.309017
vertex -0.001 0.12533323 0.9921147
endloop
endfacet
facet normal -1.0 0.0 0.0
outer loop
vertex -0.001 0.36812454 0.9297765
vertex -0.001 0.6845471 0.7289686
vertex -0.001 0.12533323 0.9921147
endloop
endfacet
facet normal -1.0 0.0 0.0
outer loop
vertex -0.001 0.18738131 0.9822872
vertex -0.001 0.36812454 0.9297765
vertex -0.001 0.12533323 0.9921147
endloop
endfacet
facet normal -1.0 0.0 0.0
outer loop
vertex -0.001 0.9921147 0.12533323
vertex -0.001 0.9980267 0.06279052
vertex -0.001 1.0 2.5420706E-15
endloop
endfacet
facet normal -1.0 0.0 0.0
outer loop
vertex -0.001 0.9822872 0.18738131
vertex -0.001 0.9921147 0.12533323
vertex -0.001 1.0 2.5420706E-15
endloop
endfacet
facet normal -1.0 0.0 0.0
outer loop
vertex -0.001 0.95105654 0.309017
vertex -0.001 0.9822872 0.18738131
vertex -0.001 0.9980267 -0.06279052
endloop
endfacet
facet normal -1.0 0.0 0.0
outer loop
vertex -0.001 0.9822872 0.18738131
vertex -0.001 1.0 2.5420706E-15
vertex -0.001 0.9980267 -0.06279052
endloop
endfacet
facet normal -1.0 0.0 0.0
outer loop
vertex -0.001 -0.06279052 0.9980267
vertex -0.001 1.8369701E-16 1.0
vertex -0.001 -0.12533323 0.9921147
endloop
endfacet
facet normal -1.0 0.0 0.0
outer loop
vertex -0.001 0.12533323 0.9921147
vertex -0.001 0.95105654 0.309017
vertex -0.001 0.9822872 -0.18738131
endloop
endfacet
facet normal -1.0 0.0 0.0
outer loop
vertex -0.001 0.9980267 -0.06279052
vertex -0.001 0.9921147 -0.12533323
vertex -0.001 0.9822872 -0.18738131
endloop
endfacet
facet normal -1.0 0.0 0.0
outer loop
vertex -0.001 0.95105654 0.309017
vertex -0.001 0.9980267 -0.06279052
vertex -0.001 0.9822872 -0.18738131
endloop
endfacet
facet normal -1.0 0.0 0.0
outer loop
vertex -0.001 0.06279052 0.9980267
vertex -0.001 0.12533323 0.9921147
vertex -0.001 0.9822872 -0.18738131
endloop
endfacet
facet normal -1.0 0.0 0.0
outer loop
vertex -0.001 -0.12533323 0.9921147
vertex -0.001 1.8369701E-16 1.0
vertex -0.001 -0.18738131 0.9822872
endloop
endfacet
facet normal -1.0 0.0 0.0
outer loop
vertex -0.001 0.9822872 -0.18738131
vertex -0.001 0.96858317 -0.24868989
vertex -0.001 0.95105654 -0.309017
endloop
endfacet
facet normal -1.0 0.0 0.0
outer loop
vertex -0.001 -0.24868989 0.96858317
vertex -0.001 -0.18738131 0.9822872
vertex -0.001 -0.309017 0.95105654
endloop
endfacet
facet normal -1.0 0.0 0.0
outer loop
vertex -0.001 -0.18738131 0.9822872
vertex -0.001 1.8369701E-16 1.0
vertex -0.001 -0.36812454 0.9297765
endloop
endfacet
facet normal -1.0 0.0 0.0
outer loop
vertex -0.001 -0.309017 0.95105654
vertex -0.001 -0.18738131 0.9822872
vertex -0.001 -0.36812454 0.9297765
endloop
endfacet
facet normal -1.0 0.0 0.0
outer loop
vertex -0.001 1.8369701E-16 1.0
vertex -0.001 0.06279052 0.9980267
vertex -0.001 -0.36812454 0.9297765
endloop
endfacet
facet normal -1.0 0.0 0.0
outer loop
vertex -0.001 0.9822872 -0.18738131
vertex -0.001 0.95105654 -0.309017
vertex -0.001 0.9297765 -0.36812454
endloop
endfacet
facet normal -1.0 0.0 0.0
outer loop
vertex -0.001 0.06279052 0.9980267
vertex -0.001 0.9822872 -0.18738131
vertex -0.001 0.9297765 -0.36812454
endloop
endfacet
facet normal -1.0 0.0 0.0
outer loop
vertex -0.001 -0.36812454 0.9297765
vertex -0.001 0.06279052 0.9980267
vertex -0.001 -0.48175368 0.87630665
endloop
endfacet
facet normal -1.0 0.0 0.0
outer loop
vertex -0.001 0.06279052 0.9980267
vertex -0.001 0.9297765 -0.36812454
vertex -0.001 -0.48175368 0.87630665
endloop
endfacet
facet normal -1.0 0.0 0.0
outer loop
vertex -0.001 -0.42577928 0.90482706
vertex -0.001 -0.36812454 0.9297765
vertex -0.001 -0.48175368 0.87630665
endloop
endfacet
facet normal -1.0 0.0 0.0
outer loop
vertex -0.001 0.87630665 -0.48175368
vertex -0.001 0.8443279 -0.5358268
vertex -0.001 0.809017 -0.58778524
endloop
endfacet
facet normal -1.0 0.0 0.0
outer loop
vertex -0.001 -0.5358268 0.8443279
vertex -0.001 -0.48175368 0.87630665
vertex -0.001 -0.637424 0.77051324
endloop
endfacet
facet normal -1.0 0.0 0.0
outer loop
vertex -0.001 -0.58778524 0.809017
vertex -0.001 -0.5358268 0.8443279
vertex -0.001 -0.637424 0.77051324
endloop
endfacet
facet normal -1.0 0.0 0.0
outer loop
vertex -0.001 0.90482706 -0.42577928
vertex -0.001 0.87630665 -0.48175368
vertex -0.001 0.77051324 -0.637424
endloop
endfacet
facet normal -1.0 0.0 0.0
outer loop
vertex -0.001 0.9297765 -0.36812454
vertex -0.001 0.90482706 -0.42577928
vertex -0.001 0.77051324 -0.637424
endloop
endfacet
facet normal -1.0 0.0 0.0
outer loop
vertex -0.001 0.87630665 -0.48175368
vertex -0.001 0.809017 -0.58778524
vertex -0.001 0.77051324 -0.637424
endloop
endfacet
facet normal -1.0 0.0 0.0
outer loop
vertex -0.001 -0.637424 0.77051324
vertex -0.001 -0.48175368 0.87630665
vertex -0.001 -0.6845471 0.7289686
endloop
endfacet
facet normal -1.0 0.0 0.0
outer loop
vertex -0.001 -0.6845471 0.7289686
vertex -0.001 -0.48175368 0.87630665
vertex -0.001 -0.7289686 0.6845471
endloop
endfacet
facet normal -1.0 0.0 0.0
outer loop
vertex -0.001 0.77051324 -0.637424
vertex -0.001 0.7289686 -0.6845471
vertex -0.001 0.6845471 -0.7289686
endloop
endfacet
facet normal -1.0 0.0 0.0
outer loop
vertex -0.001 -0.7289686 0.6845471
vertex -0.001 -0.48175368 0.87630665
vertex -0.001 0.5358268 -0.8443279
endloop
endfacet
facet normal -1.0 0.0 0.0
outer loop
vertex -0.001 0.77051324 -0.637424
vertex -0.001 0.6845471 -0.7289686
vertex -0.001 0.5358268 -0.8443279
endloop
endfacet
facet normal -1.0 0.0 0.0
outer loop
vertex -0.001 0.637424 -0.77051324
vertex -0.001 0.58778524 -0.809017
vertex -0.001 0.5358268 -0.8443279
endloop
endfacet
facet normal -1.0 0.0 0.0
outer loop
vertex -0.001 0.6845471 -0.7289686
vertex -0.001 0.637424 -0.77051324
vertex -0.001 0.5358268 -0.8443279
endloop
endfacet
facet normal -1.0 0.0 0.0
outer loop
vertex -0.001 -0.48175368 0.87630665
vertex -0.001 0.9297765 -0.36812454
vertex -0.001 0.5358268 -0.8443279
endloop
endfacet
facet normal -1.0 0.0 0.0
outer loop
vertex -0.001 0.9297765 -0.36812454
vertex -0.001 0.77051324 -0.637424
vertex -0.001 0.5358268 -0.8443279
endloop
endfacet
facet normal -1.0 0.0 0.0
outer loop
vertex -0.001 -0.87630665 0.48175368
vertex -0.001 -0.8443279 0.5358268
vertex -0.001 -0.90482706 0.42577928
endloop
endfacet
facet normal -1.0 0.0 0.0
outer loop
vertex -0.001 -0.90482706 0.42577928
vertex -0.001 -0.8443279 0.5358268
vertex -0.001 -0.9297765 0.36812454
endloop
endfacet
facet normal -1.0 0.0 0.0
outer loop
vertex -0.001 -0.8443279 0.5358268
vertex -0.001 -0.809017 0.58778524
vertex -0.001 -0.9297765 0.36812454
endloop
endfacet
facet normal -1.0 0.0 0.0
outer loop
vertex -0.001 0.48175368 -0.87630665
vertex -0.001 0.42577928 -0.90482706
vertex -0.001 0.36812454 -0.9297765
endloop
endfacet
facet normal -1.0 0.0 0.0
outer loop
vertex -0.001 0.48175368 -0.87630665
vertex -0.001 0.36812454 -0.9297765
vertex -0.001 0.309017 -0.95105654
endloop
endfacet
facet normal -1.0 0.0 0.0
outer loop
vertex -0.001 0.5358268 -0.8443279
vertex -0.001 0.48175368 -0.87630665
vertex -0.001 0.309017 -0.95105654
endloop
endfacet
facet normal -1.0 0.0 0.0
outer loop
vertex -0.001 -0.9297765 0.36812454
vertex -0.001 -0.809017 0.58778524
vertex -0.001 -0.9822872 0.18738131
endloop
endfacet
facet normal -1.0 0.0 0.0
outer loop
vertex -0.001 -0.95105654 0.309017
vertex -0.001 -0.9297765 0.36812454
vertex -0.001 -0.9822872 0.18738131
endloop
endfacet
facet normal -1.0 0.0 0.0
outer loop
vertex -0.001 -0.96858317 0.24868989
vertex -0.001 -0.95105654 0.309017
vertex -0.001 -0.9822872 0.18738131
endloop
endfacet
facet normal -1.0 0.0 0.0
outer loop
vertex -0.001 -0.9822872 0.18738131
vertex -0.001 -0.809017 0.58778524
vertex -0.001 -0.9921147 0.12533323
endloop
endfacet
facet normal -1.0 0.0 0.0
outer loop
vertex -0.001 -0.9921147 0.12533323
vertex -0.001 -0.809017 0.58778524
vertex -0.001 -0.9980267 0.06279052
endloop
endfacet
facet normal -1.0 0.0 0.0
outer loop
vertex -0.001 -0.77051324 0.637424
vertex -0.001 -0.7289686 0.6845471
vertex -0.001 -0.9980267 0.06279052
endloop
endfacet
facet normal -1.0 0.0 0.0
outer loop
vertex -0.001 -0.809017 0.58778524
vertex -0.001 -0.77051324 0.637424
vertex -0.001 -0.9980267 0.06279052
endloop
endfacet
facet normal -1.0 0.0 0.0
outer loop
vertex -0.001 0.18738131 -0.9822872
vertex -0.001 0.12533323 -0.9921147
vertex -0.001 0.06279052 -0.9980267
endloop
endfacet
facet normal -1.0 0.0 0.0
outer loop
vertex -0.001 0.24868989 -0.96858317
vertex -0.001 0.18738131 -0.9822872
vertex -0.001 0.06279052 -0.9980267
endloop
endfacet
facet normal -1.0 0.0 0.0
outer loop
vertex -0.001 0.309017 -0.95105654
vertex -0.001 0.24868989 -0.96858317
vertex -0.001 0.06279052 -0.9980267
endloop
endfacet
facet normal -1.0 0.0 0.0
outer loop
vertex -0.001 6.049015E-16 -1.0
vertex -0.001 -0.06279052 -0.9980267
vertex -0.001 -0.12533323 -0.9921147
endloop
endfacet
facet normal -1.0 0.0 0.0
outer loop
vertex -0.001 0.06279052 -0.9980267
vertex -0.001 6.049015E-16 -1.0
vertex -0.001 -0.12533323 -0.9921147
endloop
endfacet
facet normal -1.0 0.0 0.0
outer loop
vertex -0.001 -0.12533323 -0.9921147
vertex -0.001 -0.18738131 -0.9822872
vertex -0.001 -0.24868989 -0.96858317
endloop
endfacet
facet normal -1.0 0.0 0.0
outer loop
vertex -0.001 -0.9980267 -0.06279052
vertex -0.001 -1.0 2.4492937E-16
vertex -0.001 -0.95105654 -0.309017
endloop
endfacet
facet normal -1.0 0.0 0.0
outer loop
vertex -0.001 -0.9921147 -0.12533323
vertex -0.001 -0.9980267 -0.06279052
vertex -0.001 -0.95105654 -0.309017
endloop
endfacet
facet normal -1.0 0.0 0.0
outer loop
vertex -0.001 -0.9822872 -0.18738131
vertex -0.001 -0.9921147 -0.12533323
vertex -0.001 -0.95105654 -0.309017
endloop
endfacet
facet normal -1.0 0.0 0.0
outer loop
vertex -0.001 -0.96858317 -0.24868989
vertex -0.001 -0.9822872 -0.18738131
vertex -0.001 -0.95105654 -0.309017
endloop
endfacet
facet normal -1.0 0.0 0.0
outer loop
vertex -0.001 -0.7289686 0.6845471
vertex -0.001 0.5358268 -0.8443279
vertex -0.001 -0.95105654 -0.309017
endloop
endfacet
facet normal -1.0 0.0 0.0
outer loop
vertex -0.001 0.5358268 -0.8443279
vertex -0.001 0.309017 -0.95105654
vertex -0.001 -0.95105654 -0.309017
endloop
endfacet
facet normal -1.0 0.0 0.0
outer loop
vertex -0.001 -0.9980267 0.06279052
vertex -0.001 -0.7289686 0.6845471
vertex -0.001 -0.95105654 -0.309017
endloop
endfacet
facet normal -1.0 0.0 0.0
outer loop
vertex -0.001 -1.0 2.4492937E-16
vertex -0.001 -0.9980267 0.06279052
vertex -0.001 -0.95105654 -0.309017
endloop
endfacet
facet normal -1.0 0.0 0.0
outer loop
vertex -0.001 -0.24868989 -0.96858317
vertex -0.001 -0.309017 -0.95105654
vertex -0.001 -0.36812454 -0.9297765
endloop
endfacet
facet normal -1.0 0.0 0.0
outer loop
vertex -0.001 -0.9297765 -0.36812454
vertex -0.001 -0.95105654 -0.309017
vertex -0.001 -0.42577928 -0.90482706
endloop
endfacet
facet normal -1.0 0.0 0.0
outer loop
vertex -0.001 -0.90482706 -0.42577928
vertex -0.001 -0.9297765 -0.36812454
vertex -0.001 -0.42577928 -0.90482706
endloop
endfacet
facet normal -1.0 0.0 0.0
outer loop
vertex -0.001 0.06279052 -0.9980267
vertex -0.001 -0.12533323 -0.9921147
vertex -0.001 -0.42577928 -0.90482706
endloop
endfacet
facet normal -1.0 0.0 0.0
outer loop
vertex -0.001 0.309017 -0.95105654
vertex -0.001 0.06279052 -0.9980267
vertex -0.001 -0.42577928 -0.90482706
endloop
endfacet
facet normal -1.0 0.0 0.0
outer loop
vertex -0.001 -0.95105654 -0.309017
vertex -0.001 0.309017 -0.95105654
vertex -0.001 -0.42577928 -0.90482706
endloop
endfacet
facet normal -1.0 0.0 0.0
outer loop
vertex -0.001 -0.24868989 -0.96858317
vertex -0.001 -0.36812454 -0.9297765
vertex -0.001 -0.42577928 -0.90482706
endloop
endfacet
facet normal -1.0 0.0 0.0
outer loop
vertex -0.001 -0.12533323 -0.9921147
vertex -0.001 -0.24868989 -0.96858317
vertex -0.001 -0.42577928 -0.90482706
endloop
endfacet
facet normal -1.0 0.0 0.0
outer loop
vertex -0.001 -0.42577928 -0.90482706
vertex -0.001 -0.48175368 -0.87630665
vertex -0.001 -0.5358268 -0.8443279
endloop
endfacet
facet normal -1.0 0.0 0.0
outer loop
vertex -0.001 -0.90482706 -0.42577928
vertex -0.001 -0.42577928 -0.90482706
vertex -0.001 -0.5358268 -0.8443279
endloop
endfacet
facet normal -1.0 0.0 0.0
outer loop
vertex -0.001 -0.8443279 -0.5358268
vertex -0.001 -0.87630665 -0.48175368
vertex -0.001 -0.809017 -0.58778524
endloop
endfacet
facet normal -1.0 0.0 0.0
outer loop
vertex -0.001 -0.5358268 -0.8443279
vertex -0.001 -0.58778524 -0.809017
vertex -0.001 -0.637424 -0.77051324
endloop
endfacet
facet normal -1.0 0.0 0.0
outer loop
vertex -0.001 -0.87630665 -0.48175368
vertex -0.001 -0.90482706 -0.42577928
vertex -0.001 -0.7289686 -0.6845471
endloop
endfacet
facet normal -1.0 0.0 0.0
outer loop
vertex -0.001 -0.77051324 -0.637424
vertex -0.001 -0.809017 -0.58778524
vertex -0.001 -0.7289686 -0.6845471
endloop
endfacet
facet normal -1.0 0.0 0.0
outer loop
vertex -0.001 -0.809017 -0.58778524
vertex -0.001 -0.87630665 -0.48175368
vertex -0.001 -0.7289686 -0.6845471
endloop
endfacet
facet normal -1.0 0.0 0.0
outer loop
vertex -0.001 -0.90482706 -0.42577928
vertex -0.001 -0.5358268 -0.8443279
vertex -0.001 -0.6845471 -0.7289686
endloop
endfacet
facet normal -1.0 0.0 0.0
outer loop
vertex -0.001 -0.7289686 -0.6845471
vertex -0.001 -0.90482706 -0.42577928
vertex -0.001 -0.6845471 -0.7289686
endloop
endfacet
facet normal -1.0 0.0 0.0
outer loop
vertex -0.001 -0.5358268 -0.8443279
vertex -0.001 -0.637424 -0.77051324
vertex -0.001 -0.6845471 -0.7289686
endloop
endfacet
endsolid disk1
