solid cylinder
facet normal 0.0 -0.9997807 -0.02093936
outer loop
vertex 1.5009999 -0.3 7.347881E-17
vertex -0.001 -0.3 7.347881E-17
vertex -0.001 -0.29940802 -0.018837158
endloop
endfacet
facet normal 0.0 -0.9964931 -0.083674796
outer loop
vertex 1.5009999 -0.29940802 -0.018837158
vertex -0.001 -0.29940802 -0.018837158
vertex -0.001 -0.29763442 -0.037599973
endloop
endfacet
facet normal 0.0 -0.9991227 -0.04187872
outer loop
vertex 1.5009999 -0.29940802 -0.018837158
vertex 1.5009999 -0.3 7.347881E-17
vertex -0.001 -0.29940802 -0.018837158
endloop
endfacet
facet normal 0.0 -0.9945216 -0.10453151
outer loop
vertex 1.5009999 -0.29763442 -0.037599973
vertex 1.5009999 -0.29940802 -0.018837158
vertex -0.001 -0.29763442 -0.037599973
endloop
endfacet
facet normal 0.0 -0.98599553 -0.16677178
outer loop
vertex 1.5009999 -0.29468617 -0.056214396
vertex -0.001 -0.29763442 -0.037599973
vertex -0.001 -0.29468617 -0.056214396
endloop
endfacet
facet normal 0.0 -0.9781482 -0.20790869
outer loop
vertex 1.5009999 -0.29468617 -0.056214396
vertex -0.001 -0.29468617 -0.056214396
vertex -0.001 -0.29057497 -0.07460697
endloop
endfacet
facet normal 0.0 -0.9892728 -0.14608
outer loop
vertex 1.5009999 -0.29468617 -0.056214396
vertex 1.5009999 -0.29763442 -0.037599973
vertex -0.001 -0.29763442 -0.037599973
endloop
endfacet
facet normal 0.0 -0.97357816 -0.22835384
outer loop
vertex 1.5009999 -0.29057497 -0.07460697
vertex 1.5009999 -0.29468617 -0.056214396
vertex -0.001 -0.29057497 -0.07460697
endloop
endfacet
facet normal 0.0 -0.9573186 -0.28903472
outer loop
vertex 1.5009999 -0.28531697 -0.0927051
vertex -0.001 -0.29057497 -0.07460697
vertex -0.001 -0.28531697 -0.0927051
endloop
endfacet
facet normal 0.0 -0.96316344 -0.26891688
outer loop
vertex 1.5009999 -0.28531697 -0.0927051
vertex 1.5009999 -0.29057497 -0.07460697
vertex -0.001 -0.29057497 -0.07460697
endloop
endfacet
facet normal 0.0 -0.9372809 -0.34857488
outer loop
vertex 1.5009999 -0.27893296 -0.11043737
vertex -0.001 -0.28531697 -0.0927051
vertex -0.001 -0.27893296 -0.11043737
endloop
endfacet
facet normal 0.0 -0.94437736 -0.32886374
outer loop
vertex 1.5009999 -0.27893296 -0.11043737
vertex 1.5009999 -0.28531697 -0.0927051
vertex -0.001 -0.28531697 -0.0927051
endloop
endfacet
facet normal 0.0 -0.9135442 -0.40673947
outer loop
vertex 1.5009999 -0.27144814 -0.1277338
vertex -0.001 -0.27893296 -0.11043737
vertex -0.001 -0.27144814 -0.1277338
endloop
endfacet
facet normal 0.0 -0.89571315 -0.44463247
outer loop
vertex 1.5009999 -0.27144814 -0.1277338
vertex -0.001 -0.27144814 -0.1277338
vertex -0.001 -0.262892 -0.14452611
endloop
endfacet
facet normal 0.0 -0.92186433 -0.38751277
outer loop
vertex 1.5009999 -0.27144814 -0.1277338
vertex 1.5009999 -0.27893296 -0.11043737
vertex -0.001 -0.27893296 -0.11043737
endloop
endfacet
facet normal 0.0 -0.8862021 -0.46329877
outer loop
vertex 1.5009999 -0.262892 -0.14452611
vertex 1.5009999 -0.27144814 -0.1277338
vertex -0.001 -0.262892 -0.14452611
endloop
endfacet
facet normal 0.0 -0.8553627 -0.51802963
outer loop
vertex 1.5009999 -0.2532984 -0.16074805
vertex -0.001 -0.262892 -0.14452611
vertex -0.001 -0.2532984 -0.16074805
endloop
endfacet
facet normal 0.0 -0.86602694 -0.49999735
outer loop
vertex 1.5009999 -0.2532984 -0.16074805
vertex 1.5009999 -0.262892 -0.14452611
vertex -0.001 -0.262892 -0.14452611
endloop
endfacet
facet normal 0.0 -0.82114744 -0.570716
outer loop
vertex 1.5009999 -0.2427051 -0.17633557
vertex -0.001 -0.2532984 -0.16074805
vertex -0.001 -0.2427051 -0.17633557
endloop
endfacet
facet normal 0.0 -0.83292294 -0.55338895
outer loop
vertex 1.5009999 -0.2427051 -0.17633557
vertex 1.5009999 -0.2532984 -0.16074805
vertex -0.001 -0.2532984 -0.16074805
endloop
endfacet
facet normal 0.0 -0.7836916 -0.6211502
outer loop
vertex 1.5009999 -0.23115398 -0.19122721
vertex -0.001 -0.2427051 -0.17633557
vertex -0.001 -0.23115398 -0.19122721
endloop
endfacet
facet normal 0.0 -0.75699705 -0.65341836
outer loop
vertex 1.5009999 -0.23115398 -0.19122721
vertex -0.001 -0.23115398 -0.19122721
vertex -0.001 -0.21869059 -0.20536415
endloop
endfacet
facet normal 0.0 -0.7965318 -0.6045967
outer loop
vertex 1.5009999 -0.23115398 -0.19122721
vertex 1.5009999 -0.2427051 -0.17633557
vertex -0.001 -0.2427051 -0.17633557
endloop
endfacet
facet normal 0.0 -0.7431427 -0.66913295
outer loop
vertex 1.5009999 -0.21869059 -0.20536415
vertex 1.5009999 -0.23115398 -0.19122721
vertex -0.001 -0.21869059 -0.20536415
endloop
endfacet
facet normal 0.0 -0.69966114 -0.7144748
outer loop
vertex 1.5009999 -0.20536415 -0.21869059
vertex -0.001 -0.21869059 -0.20536415
vertex -0.001 -0.20536415 -0.21869059
endloop
endfacet
facet normal 0.0 -0.7144748 -0.69966114
outer loop
vertex 1.5009999 -0.20536415 -0.21869059
vertex 1.5009999 -0.21869059 -0.20536415
vertex -0.001 -0.21869059 -0.20536415
endloop
endfacet
facet normal 0.0 -0.65341836 -0.756997
outer loop
vertex 1.5009999 -0.19122721 -0.23115398
vertex -0.001 -0.20536415 -0.21869059
vertex -0.001 -0.19122721 -0.23115398
endloop
endfacet
facet normal 0.0 -0.6211502 -0.7836915
outer loop
vertex 1.5009999 -0.19122721 -0.23115398
vertex -0.001 -0.19122721 -0.23115398
vertex -0.001 -0.17633557 -0.2427051
endloop
endfacet
facet normal 0.0 -0.66913295 -0.7431427
outer loop
vertex 1.5009999 -0.19122721 -0.23115398
vertex 1.5009999 -0.20536415 -0.21869059
vertex -0.001 -0.20536415 -0.21869059
endloop
endfacet
facet normal 0.0 -0.6045967 -0.7965318
outer loop
vertex 1.5009999 -0.17633557 -0.2427051
vertex 1.5009999 -0.19122721 -0.23115398
vertex -0.001 -0.17633557 -0.2427051
endloop
endfacet
facet normal 0.0 -0.55338895 -0.83292294
outer loop
vertex 1.5009999 -0.16074805 -0.2532984
vertex -0.001 -0.17633557 -0.2427051
vertex -0.001 -0.16074805 -0.2532984
endloop
endfacet
facet normal 0.0 -0.570716 -0.82114744
outer loop
vertex 1.5009999 -0.16074805 -0.2532984
vertex 1.5009999 -0.17633557 -0.2427051
vertex -0.001 -0.17633557 -0.2427051
endloop
endfacet
facet normal 0.0 -0.49999735 -0.86602694
outer loop
vertex 1.5009999 -0.14452611 -0.262892
vertex -0.001 -0.16074805 -0.2532984
vertex -0.001 -0.14452611 -0.262892
endloop
endfacet
facet normal 0.0 -0.51802963 -0.8553627
outer loop
vertex 1.5009999 -0.14452611 -0.262892
vertex 1.5009999 -0.16074805 -0.2532984
vertex -0.001 -0.16074805 -0.2532984
endloop
endfacet
facet normal 0.0 -0.44463247 -0.89571315
outer loop
vertex 1.5009999 -0.1277338 -0.27144814
vertex -0.001 -0.14452611 -0.262892
vertex -0.001 -0.1277338 -0.27144814
endloop
endfacet
facet normal 0.0 -0.46329877 -0.8862021
outer loop
vertex 1.5009999 -0.1277338 -0.27144814
vertex 1.5009999 -0.14452611 -0.262892
vertex -0.001 -0.14452611 -0.262892
endloop
endfacet
facet normal 0.0 -0.38751277 -0.92186433
outer loop
vertex 1.5009999 -0.11043737 -0.27893296
vertex -0.001 -0.1277338 -0.27144814
vertex -0.001 -0.11043737 -0.27893296
endloop
endfacet
facet normal 0.0 -0.40673947 -0.9135442
outer loop
vertex 1.5009999 -0.11043737 -0.27893296
vertex 1.5009999 -0.1277338 -0.27144814
vertex -0.001 -0.1277338 -0.27144814
endloop
endfacet
facet normal 0.0 -0.32886374 -0.94437736
outer loop
vertex 1.5009999 -0.0927051 -0.28531697
vertex -0.001 -0.11043737 -0.27893296
vertex -0.001 -0.0927051 -0.28531697
endloop
endfacet
facet normal 0.0 -0.28903472 -0.9573186
outer loop
vertex 1.5009999 -0.0927051 -0.28531697
vertex -0.001 -0.0927051 -0.28531697
vertex -0.001 -0.07460697 -0.29057497
endloop
endfacet
facet normal 0.0 -0.34857488 -0.9372809
outer loop
vertex 1.5009999 -0.0927051 -0.28531697
vertex 1.5009999 -0.11043737 -0.27893296
vertex -0.001 -0.11043737 -0.27893296
endloop
endfacet
facet normal 0.0 -0.26891688 -0.96316344
outer loop
vertex 1.5009999 -0.07460697 -0.29057497
vertex 1.5009999 -0.0927051 -0.28531697
vertex -0.001 -0.07460697 -0.29057497
endloop
endfacet
facet normal 0.0 -0.2079087 -0.9781482
outer loop
vertex 1.5009999 -0.056214396 -0.29468617
vertex -0.001 -0.07460697 -0.29057497
vertex -0.001 -0.056214396 -0.29468617
endloop
endfacet
facet normal 0.0 -0.22835384 -0.97357816
outer loop
vertex 1.5009999 -0.056214396 -0.29468617
vertex 1.5009999 -0.07460697 -0.29057497
vertex -0.001 -0.07460697 -0.29057497
endloop
endfacet
facet normal 0.0 -0.14608 -0.9892728
outer loop
vertex 1.5009999 -0.037599973 -0.29763442
vertex -0.001 -0.056214396 -0.29468617
vertex -0.001 -0.037599973 -0.29763442
endloop
endfacet
facet normal 0.0 -0.10453151 -0.9945216
outer loop
vertex 1.5009999 -0.037599973 -0.29763442
vertex -0.001 -0.037599973 -0.29763442
vertex -0.001 -0.018837158 -0.29940802
endloop
endfacet
facet normal 0.0 -0.16677178 -0.98599553
outer loop
vertex 1.5009999 -0.037599973 -0.29763442
vertex 1.5009999 -0.056214396 -0.29468617
vertex -0.001 -0.056214396 -0.29468617
endloop
endfacet
facet normal 0.0 -0.083674796 -0.9964931
outer loop
vertex 1.5009999 -0.018837158 -0.29940802
vertex 1.5009999 -0.037599973 -0.29763442
vertex -0.001 -0.018837158 -0.29940802
endloop
endfacet
facet normal 0.0 -0.02093936 -0.9997807
outer loop
vertex 1.5009999 1.8147046E-16 -0.3
vertex -0.001 -0.018837158 -0.29940802
vertex -0.001 1.8147046E-16 -0.3
endloop
endfacet
facet normal 0.0 -0.04187872 -0.9991227
outer loop
vertex 1.5009999 1.8147046E-16 -0.3
vertex 1.5009999 -0.018837158 -0.29940802
vertex -0.001 -0.018837158 -0.29940802
endloop
endfacet
facet normal 0.0 0.02093936 -0.9997807
outer loop
vertex 1.5009999 0.018837158 -0.29940802
vertex 1.5009999 1.8147046E-16 -0.3
vertex -0.001 1.8147046E-16 -0.3
endloop
endfacet
facet normal 0.0 0.04187872 -0.9991227
outer loop
vertex 1.5009999 0.018837158 -0.29940802
vertex -0.001 1.8147046E-16 -0.3
vertex -0.001 0.018837158 -0.29940802
endloop
endfacet
facet normal 0.0 0.083674796 -0.9964931
outer loop
vertex 1.5009999 0.037599973 -0.29763442
vertex 1.5009999 0.018837158 -0.29940802
vertex -0.001 0.018837158 -0.29940802
endloop
endfacet
facet normal 0.0 0.10453151 -0.9945216
outer loop
vertex 1.5009999 0.037599973 -0.29763442
vertex -0.001 0.018837158 -0.29940802
vertex -0.001 0.037599973 -0.29763442
endloop
endfacet
facet normal 0.0 0.14608 -0.9892728
outer loop
vertex 1.5009999 0.037599973 -0.29763442
vertex -0.001 0.037599973 -0.29763442
vertex -0.001 0.056214396 -0.29468617
endloop
endfacet
facet normal 0.0 0.16677178 -0.98599553
outer loop
vertex 1.5009999 0.056214396 -0.29468617
vertex 1.5009999 0.037599973 -0.29763442
vertex -0.001 0.056214396 -0.29468617
endloop
endfacet
facet normal 0.0 0.20790869 -0.9781482
outer loop
vertex 1.5009999 0.056214396 -0.29468617
vertex -0.001 0.056214396 -0.29468617
vertex -0.001 0.07460697 -0.29057497
endloop
endfacet
facet normal 0.0 0.22835384 -0.97357816
outer loop
vertex 1.5009999 0.07460697 -0.29057497
vertex 1.5009999 0.056214396 -0.29468617
vertex -0.001 0.07460697 -0.29057497
endloop
endfacet
facet normal 0.0 0.26891688 -0.96316344
outer loop
vertex 1.5009999 0.0927051 -0.28531697
vertex 1.5009999 0.07460697 -0.29057497
vertex -0.001 0.07460697 -0.29057497
endloop
endfacet
facet normal 0.0 0.28903472 -0.9573186
outer loop
vertex 1.5009999 0.0927051 -0.28531697
vertex -0.001 0.07460697 -0.29057497
vertex -0.001 0.0927051 -0.28531697
endloop
endfacet
facet normal 0.0 0.32886374 -0.94437736
outer loop
vertex 1.5009999 0.11043737 -0.27893296
vertex 1.5009999 0.0927051 -0.28531697
vertex -0.001 0.0927051 -0.28531697
endloop
endfacet
facet normal 0.0 0.34857488 -0.9372809
outer loop
vertex 1.5009999 0.11043737 -0.27893296
vertex -0.001 0.0927051 -0.28531697
vertex -0.001 0.11043737 -0.27893296
endloop
endfacet
facet normal 0.0 0.40673947 -0.9135442
outer loop
vertex 1.5009999 0.1277338 -0.27144814
vertex -0.001 0.11043737 -0.27893296
vertex -0.001 0.1277338 -0.27144814
endloop
endfacet
facet normal 0.0 0.38751277 -0.92186433
outer loop
vertex 1.5009999 0.1277338 -0.27144814
vertex 1.5009999 0.11043737 -0.27893296
vertex -0.001 0.11043737 -0.27893296
endloop
endfacet
facet normal 0.0 0.44463247 -0.89571315
outer loop
vertex 1.5009999 0.1277338 -0.27144814
vertex -0.001 0.1277338 -0.27144814
vertex -0.001 0.14452611 -0.262892
endloop
endfacet
facet normal 0.0 0.46329877 -0.8862021
outer loop
vertex 1.5009999 0.14452611 -0.262892
vertex 1.5009999 0.1277338 -0.27144814
vertex -0.001 0.14452611 -0.262892
endloop
endfacet
facet normal 0.0 0.51802963 -0.8553627
outer loop
vertex 1.5009999 0.16074805 -0.2532984
vertex -0.001 0.14452611 -0.262892
vertex -0.001 0.16074805 -0.2532984
endloop
endfacet
facet normal 0.0 0.49999735 -0.86602694
outer loop
vertex 1.5009999 0.16074805 -0.2532984
vertex 1.5009999 0.14452611 -0.262892
vertex -0.001 0.14452611 -0.262892
endloop
endfacet
facet normal 0.0 0.570716 -0.82114744
outer loop
vertex 1.5009999 0.17633557 -0.2427051
vertex -0.001 0.16074805 -0.2532984
vertex -0.001 0.17633557 -0.2427051
endloop
endfacet
facet normal 0.0 0.6045967 -0.7965318
outer loop
vertex 1.5009999 0.17633557 -0.2427051
vertex -0.001 0.17633557 -0.2427051
vertex -0.001 0.19122721 -0.23115398
endloop
endfacet
facet normal 0.0 0.55338895 -0.83292294
outer loop
vertex 1.5009999 0.17633557 -0.2427051
vertex 1.5009999 0.16074805 -0.2532984
vertex -0.001 0.16074805 -0.2532984
endloop
endfacet
facet normal 0.0 0.6211502 -0.7836916
outer loop
vertex 1.5009999 0.19122721 -0.23115398
vertex 1.5009999 0.17633557 -0.2427051
vertex -0.001 0.19122721 -0.23115398
endloop
endfacet
facet normal 0.0 0.66913295 -0.7431427
outer loop
vertex 1.5009999 0.20536415 -0.21869059
vertex -0.001 0.19122721 -0.23115398
vertex -0.001 0.20536415 -0.21869059
endloop
endfacet
facet normal 0.0 0.65341836 -0.756997
outer loop
vertex 1.5009999 0.20536415 -0.21869059
vertex 1.5009999 0.19122721 -0.23115398
vertex -0.001 0.19122721 -0.23115398
endloop
endfacet
facet normal 0.0 0.7144748 -0.69966114
outer loop
vertex 1.5009999 0.21869059 -0.20536415
vertex -0.001 0.20536415 -0.21869059
vertex -0.001 0.21869059 -0.20536415
endloop
endfacet
facet normal 0.0 0.69966114 -0.7144748
outer loop
vertex 1.5009999 0.21869059 -0.20536415
vertex 1.5009999 0.20536415 -0.21869059
vertex -0.001 0.20536415 -0.21869059
endloop
endfacet
facet normal 0.0 0.756997 -0.65341836
outer loop
vertex 1.5009999 0.23115398 -0.19122721
vertex -0.001 0.21869059 -0.20536415
vertex -0.001 0.23115398 -0.19122721
endloop
endfacet
facet normal 0.0 0.7431427 -0.66913295
outer loop
vertex 1.5009999 0.23115398 -0.19122721
vertex 1.5009999 0.21869059 -0.20536415
vertex -0.001 0.21869059 -0.20536415
endloop
endfacet
facet normal 0.0 0.7965318 -0.6045967
outer loop
vertex 1.5009999 0.2427051 -0.17633557
vertex -0.001 0.23115398 -0.19122721
vertex -0.001 0.2427051 -0.17633557
endloop
endfacet
facet normal 0.0 0.82114744 -0.570716
outer loop
vertex 1.5009999 0.2427051 -0.17633557
vertex -0.001 0.2427051 -0.17633557
vertex -0.001 0.2532984 -0.16074805
endloop
endfacet
facet normal 0.0 0.7836916 -0.6211502
outer loop
vertex 1.5009999 0.2427051 -0.17633557
vertex 1.5009999 0.23115398 -0.19122721
vertex -0.001 0.23115398 -0.19122721
endloop
endfacet
facet normal 0.0 0.83292294 -0.55338895
outer loop
vertex 1.5009999 0.2532984 -0.16074805
vertex 1.5009999 0.2427051 -0.17633557
vertex -0.001 0.2532984 -0.16074805
endloop
endfacet
facet normal 0.0 0.86602694 -0.49999735
outer loop
vertex 1.5009999 0.262892 -0.14452611
vertex -0.001 0.2532984 -0.16074805
vertex -0.001 0.262892 -0.14452611
endloop
endfacet
facet normal 0.0 0.8553627 -0.51802963
outer loop
vertex 1.5009999 0.262892 -0.14452611
vertex 1.5009999 0.2532984 -0.16074805
vertex -0.001 0.2532984 -0.16074805
endloop
endfacet
facet normal 0.0 0.89571315 -0.44463247
outer loop
vertex 1.5009999 0.27144814 -0.1277338
vertex -0.001 0.262892 -0.14452611
vertex -0.001 0.27144814 -0.1277338
endloop
endfacet
facet normal 0.0 0.8862021 -0.46329877
outer loop
vertex 1.5009999 0.27144814 -0.1277338
vertex 1.5009999 0.262892 -0.14452611
vertex -0.001 0.262892 -0.14452611
endloop
endfacet
facet normal 0.0 0.92186433 -0.38751277
outer loop
vertex 1.5009999 0.27893296 -0.11043737
vertex -0.001 0.27144814 -0.1277338
vertex -0.001 0.27893296 -0.11043737
endloop
endfacet
facet normal 0.0 0.9135442 -0.40673947
outer loop
vertex 1.5009999 0.27893296 -0.11043737
vertex 1.5009999 0.27144814 -0.1277338
vertex -0.001 0.27144814 -0.1277338
endloop
endfacet
facet normal 0.0 0.94437736 -0.32886374
outer loop
vertex 1.5009999 0.28531697 -0.0927051
vertex -0.001 0.27893296 -0.11043737
vertex -0.001 0.28531697 -0.0927051
endloop
endfacet
facet normal 0.0 0.9372809 -0.34857488
outer loop
vertex 1.5009999 0.28531697 -0.0927051
vertex 1.5009999 0.27893296 -0.11043737
vertex -0.001 0.27893296 -0.11043737
endloop
endfacet
facet normal 0.0 0.96316344 -0.26891688
outer loop
vertex 1.5009999 0.29057497 -0.07460697
vertex -0.001 0.28531697 -0.0927051
vertex -0.001 0.29057497 -0.07460697
endloop
endfacet
facet normal 0.0 0.97357816 -0.22835384
outer loop
vertex 1.5009999 0.29057497 -0.07460697
vertex -0.001 0.29057497 -0.07460697
vertex -0.001 0.29468617 -0.056214396
endloop
endfacet
facet normal 0.0 0.9573186 -0.28903472
outer loop
vertex 1.5009999 0.29057497 -0.07460697
vertex 1.5009999 0.28531697 -0.0927051
vertex -0.001 0.28531697 -0.0927051
endloop
endfacet
facet normal 0.0 0.9781482 -0.2079087
outer loop
vertex 1.5009999 0.29468617 -0.056214396
vertex 1.5009999 0.29057497 -0.07460697
vertex -0.001 0.29468617 -0.056214396
endloop
endfacet
facet normal 0.0 0.9892728 -0.14608
outer loop
vertex 1.5009999 0.29763442 -0.037599973
vertex -0.001 0.29468617 -0.056214396
vertex -0.001 0.29763442 -0.037599973
endloop
endfacet
facet normal 0.0 0.98599553 -0.16677178
outer loop
vertex 1.5009999 0.29763442 -0.037599973
vertex 1.5009999 0.29468617 -0.056214396
vertex -0.001 0.29468617 -0.056214396
endloop
endfacet
facet normal 0.0 0.9964931 -0.083674796
outer loop
vertex 1.5009999 0.29940802 -0.018837158
vertex -0.001 0.29763442 -0.037599973
vertex -0.001 0.29940802 -0.018837158
endloop
endfacet
facet normal 0.0 0.9945216 -0.10453151
outer loop
vertex 1.5009999 0.29940802 -0.018837158
vertex 1.5009999 0.29763442 -0.037599973
vertex -0.001 0.29763442 -0.037599973
endloop
endfacet
facet normal 0.0 0.9991227 -0.04187872
outer loop
vertex 1.5009999 0.3 7.626212E-16
vertex 1.5009999 0.29940802 -0.018837158
vertex -0.001 0.29940802 -0.018837158
endloop
endfacet
facet normal 0.0 0.9997807 -0.02093936
outer loop
vertex 1.5009999 0.3 7.626212E-16
vertex -0.001 0.29940802 -0.018837158
vertex -0.001 0.3 7.626212E-16
endloop
endfacet
facet normal 0.0 0.9997807 0.02093936
outer loop
vertex 1.5009999 0.29940802 0.018837158
vertex 1.5009999 0.3 7.626212E-16
vertex -0.001 0.3 7.626212E-16
endloop
endfacet
facet normal 0.0 0.9991227 0.04187872
outer loop
vertex 1.5009999 0.29940802 0.018837158
vertex -0.001 0.3 7.626212E-16
vertex -0.001 0.29940802 0.018837158
endloop
endfacet
facet normal 0.0 0.9964931 0.083674796
outer loop
vertex 1.5009999 0.29763442 0.037599973
vertex 1.5009999 0.29940802 0.018837158
vertex -0.001 0.29940802 0.018837158
endloop
endfacet
facet normal 0.0 0.9945216 0.10453151
outer loop
vertex 1.5009999 0.29763442 0.037599973
vertex -0.001 0.29940802 0.018837158
vertex -0.001 0.29763442 0.037599973
endloop
endfacet
facet normal 0.0 0.9892728 0.14608
outer loop
vertex 1.5009999 0.29468617 0.056214396
vertex 1.5009999 0.29763442 0.037599973
vertex -0.001 0.29763442 0.037599973
endloop
endfacet
facet normal 0.0 0.98599553 0.16677178
outer loop
vertex 1.5009999 0.29468617 0.056214396
vertex -0.001 0.29763442 0.037599973
vertex -0.001 0.29468617 0.056214396
endloop
endfacet
facet normal 0.0 0.9781482 0.2079087
outer loop
vertex 1.5009999 0.29057497 0.07460697
vertex 1.5009999 0.29468617 0.056214396
vertex -0.001 0.29468617 0.056214396
endloop
endfacet
facet normal 0.0 0.97357816 0.22835384
outer loop
vertex 1.5009999 0.29057497 0.07460697
vertex -0.001 0.29468617 0.056214396
vertex -0.001 0.29057497 0.07460697
endloop
endfacet
facet normal 0.0 0.96316344 0.26891688
outer loop
vertex 1.5009999 0.29057497 0.07460697
vertex -0.001 0.29057497 0.07460697
vertex -0.001 0.28531697 0.0927051
endloop
endfacet
facet normal 0.0 0.9573186 0.28903472
outer loop
vertex 1.5009999 0.28531697 0.0927051
vertex 1.5009999 0.29057497 0.07460697
vertex -0.001 0.28531697 0.0927051
endloop
endfacet
facet normal 0.0 0.94437736 0.32886374
outer loop
vertex 1.5009999 0.27893296 0.11043737
vertex 1.5009999 0.28531697 0.0927051
vertex -0.001 0.28531697 0.0927051
endloop
endfacet
facet normal 0.0 0.9372809 0.34857488
outer loop
vertex 1.5009999 0.27893296 0.11043737
vertex -0.001 0.28531697 0.0927051
vertex -0.001 0.27893296 0.11043737
endloop
endfacet
facet normal 0.0 0.92186433 0.38751277
outer loop
vertex 1.5009999 0.27144814 0.1277338
vertex 1.5009999 0.27893296 0.11043737
vertex -0.001 0.27893296 0.11043737
endloop
endfacet
facet normal 0.0 0.9135442 0.40673947
outer loop
vertex 1.5009999 0.27144814 0.1277338
vertex -0.001 0.27893296 0.11043737
vertex -0.001 0.27144814 0.1277338
endloop
endfacet
facet normal 0.0 0.89571315 0.44463247
outer loop
vertex 1.5009999 0.262892 0.14452611
vertex 1.5009999 0.27144814 0.1277338
vertex -0.001 0.27144814 0.1277338
endloop
endfacet
facet normal 0.0 0.8862021 0.46329877
outer loop
vertex 1.5009999 0.262892 0.14452611
vertex -0.001 0.27144814 0.1277338
vertex -0.001 0.262892 0.14452611
endloop
endfacet
facet normal 0.0 0.86602694 0.49999735
outer loop
vertex 1.5009999 0.2532984 0.16074805
vertex 1.5009999 0.262892 0.14452611
vertex -0.001 0.262892 0.14452611
endloop
endfacet
facet normal 0.0 0.8553627 0.51802963
outer loop
vertex 1.5009999 0.2532984 0.16074805
vertex -0.001 0.262892 0.14452611
vertex -0.001 0.2532984 0.16074805
endloop
endfacet
facet normal 0.0 0.83292294 0.55338895
outer loop
vertex 1.5009999 0.2427051 0.17633557
vertex 1.5009999 0.2532984 0.16074805
vertex -0.001 0.2532984 0.16074805
endloop
endfacet
facet normal 0.0 0.82114744 0.570716
outer loop
vertex 1.5009999 0.2427051 0.17633557
vertex -0.001 0.2532984 0.16074805
vertex -0.001 0.2427051 0.17633557
endloop
endfacet
facet normal 0.0 0.7965318 0.6045967
outer loop
vertex 1.5009999 0.23115398 0.19122721
vertex 1.5009999 0.2427051 0.17633557
vertex -0.001 0.2427051 0.17633557
endloop
endfacet
facet normal 0.0 0.7836916 0.6211502
outer loop
vertex 1.5009999 0.23115398 0.19122721
vertex -0.001 0.2427051 0.17633557
vertex -0.001 0.23115398 0.19122721
endloop
endfacet
facet normal 0.0 0.756997 0.65341836
outer loop
vertex 1.5009999 0.21869059 0.20536415
vertex 1.5009999 0.23115398 0.19122721
vertex -0.001 0.23115398 0.19122721
endloop
endfacet
facet normal 0.0 0.7431427 0.66913295
outer loop
vertex 1.5009999 0.21869059 0.20536415
vertex -0.001 0.23115398 0.19122721
vertex -0.001 0.21869059 0.20536415
endloop
endfacet
facet normal 0.0 0.7144748 0.69966114
outer loop
vertex 1.5009999 0.20536415 0.21869059
vertex 1.5009999 0.21869059 0.20536415
vertex -0.001 0.21869059 0.20536415
endloop
endfacet
facet normal 0.0 0.69966114 0.7144748
outer loop
vertex 1.5009999 0.20536415 0.21869059
vertex -0.001 0.21869059 0.20536415
vertex -0.001 0.20536415 0.21869059
endloop
endfacet
facet normal 0.0 0.66913295 0.7431427
outer loop
vertex 1.5009999 0.19122721 0.23115398
vertex 1.5009999 0.20536415 0.21869059
vertex -0.001 0.20536415 0.21869059
endloop
endfacet
facet normal 0.0 0.65341836 0.756997
outer loop
vertex 1.5009999 0.19122721 0.23115398
vertex -0.001 0.20536415 0.21869059
vertex -0.001 0.19122721 0.23115398
endloop
endfacet
facet normal 0.0 0.6211502 0.7836916
outer loop
vertex 1.5009999 0.17633557 0.2427051
vertex 1.5009999 0.19122721 0.23115398
vertex -0.001 0.19122721 0.23115398
endloop
endfacet
facet normal 0.0 0.6045967 0.7965318
outer loop
vertex 1.5009999 0.17633557 0.2427051
vertex -0.001 0.19122721 0.23115398
vertex -0.001 0.17633557 0.2427051
endloop
endfacet
facet normal 0.0 0.570716 0.82114744
outer loop
vertex 1.5009999 0.17633557 0.2427051
vertex -0.001 0.17633557 0.2427051
vertex -0.001 0.16074805 0.2532984
endloop
endfacet
facet normal 0.0 0.55338895 0.83292294
outer loop
vertex 1.5009999 0.16074805 0.2532984
vertex 1.5009999 0.17633557 0.2427051
vertex -0.001 0.16074805 0.2532984
endloop
endfacet
facet normal 0.0 0.49999735 0.86602694
outer loop
vertex 1.5009999 0.14452611 0.262892
vertex -0.001 0.16074805 0.2532984
vertex -0.001 0.14452611 0.262892
endloop
endfacet
facet normal 0.0 0.51802963 0.8553627
outer loop
vertex 1.5009999 0.14452611 0.262892
vertex 1.5009999 0.16074805 0.2532984
vertex -0.001 0.16074805 0.2532984
endloop
endfacet
facet normal 0.0 0.44463247 0.89571315
outer loop
vertex 1.5009999 0.1277338 0.27144814
vertex -0.001 0.14452611 0.262892
vertex -0.001 0.1277338 0.27144814
endloop
endfacet
facet normal 0.0 0.46329877 0.8862021
outer loop
vertex 1.5009999 0.1277338 0.27144814
vertex 1.5009999 0.14452611 0.262892
vertex -0.001 0.14452611 0.262892
endloop
endfacet
facet normal 0.0 0.38751277 0.92186433
outer loop
vertex 1.5009999 0.11043737 0.27893296
vertex -0.001 0.1277338 0.27144814
vertex -0.001 0.11043737 0.27893296
endloop
endfacet
facet normal 0.0 0.40673947 0.9135442
outer loop
vertex 1.5009999 0.11043737 0.27893296
vertex 1.5009999 0.1277338 0.27144814
vertex -0.001 0.1277338 0.27144814
endloop
endfacet
facet normal 0.0 0.32886374 0.94437736
outer loop
vertex 1.5009999 0.0927051 0.28531697
vertex -0.001 0.11043737 0.27893296
vertex -0.001 0.0927051 0.28531697
endloop
endfacet
facet normal 0.0 0.34857488 0.9372809
outer loop
vertex 1.5009999 0.0927051 0.28531697
vertex 1.5009999 0.11043737 0.27893296
vertex -0.001 0.11043737 0.27893296
endloop
endfacet
facet normal 0.0 0.26891688 0.96316344
outer loop
vertex 1.5009999 0.07460697 0.29057497
vertex -0.001 0.0927051 0.28531697
vertex -0.001 0.07460697 0.29057497
endloop
endfacet
facet normal 0.0 0.28903472 0.9573186
outer loop
vertex 1.5009999 0.07460697 0.29057497
vertex 1.5009999 0.0927051 0.28531697
vertex -0.001 0.0927051 0.28531697
endloop
endfacet
facet normal 0.0 0.2079087 0.9781482
outer loop
vertex 1.5009999 0.056214396 0.29468617
vertex -0.001 0.07460697 0.29057497
vertex -0.001 0.056214396 0.29468617
endloop
endfacet
facet normal 0.0 0.22835384 0.97357816
outer loop
vertex 1.5009999 0.056214396 0.29468617
vertex 1.5009999 0.07460697 0.29057497
vertex -0.001 0.07460697 0.29057497
endloop
endfacet
facet normal 0.0 0.14608 0.9892728
outer loop
vertex 1.5009999 0.037599973 0.29763442
vertex -0.001 0.056214396 0.29468617
vertex -0.001 0.037599973 0.29763442
endloop
endfacet
facet normal 0.0 0.16677178 0.98599553
outer loop
vertex 1.5009999 0.037599973 0.29763442
vertex 1.5009999 0.056214396 0.29468617
vertex -0.001 0.056214396 0.29468617
endloop
endfacet
facet normal 0.0 0.083674796 0.9964931
outer loop
vertex 1.5009999 0.018837158 0.29940802
vertex -0.001 0.037599973 0.29763442
vertex -0.001 0.018837158 0.29940802
endloop
endfacet
facet normal 0.0 0.10453151 0.9945216
outer loop
vertex 1.5009999 0.018837158 0.29940802
vertex 1.5009999 0.037599973 0.29763442
vertex -0.001 0.037599973 0.29763442
endloop
endfacet
facet normal 0.0 0.04187872 0.9991227
outer loop
vertex 1.5009999 5.5109105E-17 0.3
vertex 1.5009999 0.018837158 0.29940802
vertex -0.001 0.018837158 0.29940802
endloop
endfacet
facet normal 0.0 0.02093936 0.9997807
outer loop
vertex 1.5009999 5.5109105E-17 0.3
vertex -0.001 0.018837158 0.29940802
vertex -0.001 5.5109105E-17 0.3
endloop
endfacet
facet normal 0.0 -0.02093936 0.9997807
outer loop
vertex 1.5009999 -0.018837158 0.29940802
vertex 1.5009999 5.5109105E-17 0.3
vertex -0.001 5.5109105E-17 0.3
endloop
endfacet
facet normal 0.0 -0.04187872 0.9991227
outer loop
vertex 1.5009999 -0.018837158 0.29940802
vertex -0.001 5.5109105E-17 0.3
vertex -0.001 -0.018837158 0.29940802
endloop
endfacet
facet normal 0.0 -0.083674796 0.9964931
outer loop
vertex 1.5009999 -0.037599973 0.29763442
vertex 1.5009999 -0.018837158 0.29940802
vertex -0.001 -0.018837158 0.29940802
endloop
endfacet
facet normal 0.0 -0.10453151 0.9945216
outer loop
vertex 1.5009999 -0.037599973 0.29763442
vertex -0.001 -0.018837158 0.29940802
vertex -0.001 -0.037599973 0.29763442
endloop
endfacet
facet normal 0.0 -0.14608 0.9892728
outer loop
vertex 1.5009999 -0.056214396 0.29468617
vertex 1.5009999 -0.037599973 0.29763442
vertex -0.001 -0.037599973 0.29763442
endloop
endfacet
facet normal 0.0 -0.16677178 0.98599553
outer loop
vertex 1.5009999 -0.056214396 0.29468617
vertex -0.001 -0.037599973 0.29763442
vertex -0.001 -0.056214396 0.29468617
endloop
endfacet
facet normal 0.0 -0.2079087 0.9781482
outer loop
vertex 1.5009999 -0.07460697 0.29057497
vertex 1.5009999 -0.056214396 0.29468617
vertex -0.001 -0.056214396 0.29468617
endloop
endfacet
facet normal 0.0 -0.22835384 0.97357816
outer loop
vertex 1.5009999 -0.07460697 0.29057497
vertex -0.001 -0.056214396 0.29468617
vertex -0.001 -0.07460697 0.29057497
endloop
endfacet
facet normal 0.0 -0.26891688 0.96316344
outer loop
vertex 1.5009999 -0.0927051 0.28531697
vertex 1.5009999 -0.07460697 0.29057497
vertex -0.001 -0.07460697 0.29057497
endloop
endfacet
facet normal 0.0 -0.28903472 0.9573186
outer loop
vertex 1.5009999 -0.0927051 0.28531697
vertex -0.001 -0.07460697 0.29057497
vertex -0.001 -0.0927051 0.28531697
endloop
endfacet
facet normal 0.0 -0.32886374 0.94437736
outer loop
vertex 1.5009999 -0.11043737 0.27893296
vertex 1.5009999 -0.0927051 0.28531697
vertex -0.001 -0.0927051 0.28531697
endloop
endfacet
facet normal 0.0 -0.34857488 0.9372809
outer loop
vertex 1.5009999 -0.11043737 0.27893296
vertex -0.001 -0.0927051 0.28531697
vertex -0.001 -0.11043737 0.27893296
endloop
endfacet
facet normal 0.0 -0.38751277 0.92186433
outer loop
vertex 1.5009999 -0.1277338 0.27144814
vertex 1.5009999 -0.11043737 0.27893296
vertex -0.001 -0.11043737 0.27893296
endloop
endfacet
facet normal 0.0 -0.40673947 0.9135442
outer loop
vertex 1.5009999 -0.1277338 0.27144814
vertex -0.001 -0.11043737 0.27893296
vertex -0.001 -0.1277338 0.27144814
endloop
endfacet
facet normal 0.0 -0.44463247 0.89571315
outer loop
vertex 1.5009999 -0.14452611 0.262892
vertex 1.5009999 -0.1277338 0.27144814
vertex -0.001 -0.1277338 0.27144814
endloop
endfacet
facet normal 0.0 -0.46329877 0.8862021
outer loop
vertex 1.5009999 -0.14452611 0.262892
vertex -0.001 -0.1277338 0.27144814
vertex -0.001 -0.14452611 0.262892
endloop
endfacet
facet normal 0.0 -0.49999735 0.86602694
outer loop
vertex 1.5009999 -0.16074805 0.2532984
vertex 1.5009999 -0.14452611 0.262892
vertex -0.001 -0.14452611 0.262892
endloop
endfacet
facet normal 0.0 -0.51802963 0.8553627
outer loop
vertex 1.5009999 -0.16074805 0.2532984
vertex -0.001 -0.14452611 0.262892
vertex -0.001 -0.16074805 0.2532984
endloop
endfacet
facet normal 0.0 -0.55338895 0.83292294
outer loop
vertex 1.5009999 -0.17633557 0.2427051
vertex 1.5009999 -0.16074805 0.2532984
vertex -0.001 -0.16074805 0.2532984
endloop
endfacet
facet normal 0.0 -0.570716 0.82114744
outer loop
vertex 1.5009999 -0.17633557 0.2427051
vertex -0.001 -0.16074805 0.2532984
vertex -0.001 -0.17633557 0.2427051
endloop
endfacet
facet normal 0.0 -0.6045967 0.7965318
outer loop
vertex 1.5009999 -0.19122721 0.23115398
vertex 1.5009999 -0.17633557 0.2427051
vertex -0.001 -0.17633557 0.2427051
endloop
endfacet
facet normal 0.0 -0.6211502 0.7836916
outer loop
vertex 1.5009999 -0.19122721 0.23115398
vertex -0.001 -0.17633557 0.2427051
vertex -0.001 -0.19122721 0.23115398
endloop
endfacet
facet normal 0.0 -0.65341836 0.75699705
outer loop
vertex 1.5009999 -0.19122721 0.23115398
vertex -0.001 -0.19122721 0.23115398
vertex -0.001 -0.20536415 0.21869059
endloop
endfacet
facet normal 0.0 -0.66913295 0.7431427
outer loop
vertex 1.5009999 -0.20536415 0.21869059
vertex 1.5009999 -0.19122721 0.23115398
vertex -0.001 -0.20536415 0.21869059
endloop
endfacet
facet normal 0.0 -0.69966114 0.7144748
outer loop
vertex 1.5009999 -0.21869059 0.20536415
vertex 1.5009999 -0.20536415 0.21869059
vertex -0.001 -0.20536415 0.21869059
endloop
endfacet
facet normal 0.0 -0.7144748 0.69966114
outer loop
vertex 1.5009999 -0.21869059 0.20536415
vertex -0.001 -0.20536415 0.21869059
vertex -0.001 -0.21869059 0.20536415
endloop
endfacet
facet normal 0.0 -0.7431427 0.66913295
outer loop
vertex 1.5009999 -0.23115398 0.19122721
vertex 1.5009999 -0.21869059 0.20536415
vertex -0.001 -0.21869059 0.20536415
endloop
endfacet
facet normal 0.0 -0.756997 0.65341836
outer loop
vertex 1.5009999 -0.23115398 0.19122721
vertex -0.001 -0.21869059 0.20536415
vertex -0.001 -0.23115398 0.19122721
endloop
endfacet
facet normal 0.0 -0.7836916 0.6211502
outer loop
vertex 1.5009999 -0.2427051 0.17633557
vertex 1.5009999 -0.23115398 0.19122721
vertex -0.001 -0.23115398 0.19122721
endloop
endfacet
facet normal 0.0 -0.7965318 0.6045967
outer loop
vertex 1.5009999 -0.2427051 0.17633557
vertex -0.001 -0.23115398 0.19122721
vertex -0.001 -0.2427051 0.17633557
endloop
endfacet
facet normal 0.0 -0.82114744 0.570716
outer loop
vertex 1.5009999 -0.2532984 0.16074805
vertex 1.5009999 -0.2427051 0.17633557
vertex -0.001 -0.2427051 0.17633557
endloop
endfacet
facet normal 0.0 -0.83292294 0.55338895
outer loop
vertex 1.5009999 -0.2532984 0.16074805
vertex -0.001 -0.2427051 0.17633557
vertex -0.001 -0.2532984 0.16074805
endloop
endfacet
facet normal 0.0 -0.8553627 0.51802963
outer loop
vertex 1.5009999 -0.262892 0.14452611
vertex 1.5009999 -0.2532984 0.16074805
vertex -0.001 -0.2532984 0.16074805
endloop
endfacet
facet normal 0.0 -0.86602694 0.49999735
outer loop
vertex 1.5009999 -0.262892 0.14452611
vertex -0.001 -0.2532984 0.16074805
vertex -0.001 -0.262892 0.14452611
endloop
endfacet
facet normal 0.0 -0.8862021 0.46329877
outer loop
vertex 1.5009999 -0.27144814 0.1277338
vertex 1.5009999 -0.262892 0.14452611
vertex -0.001 -0.262892 0.14452611
endloop
endfacet
facet normal 0.0 -0.89571315 0.44463247
outer loop
vertex 1.5009999 -0.27144814 0.1277338
vertex -0.001 -0.262892 0.14452611
vertex -0.001 -0.27144814 0.1277338
endloop
endfacet
facet normal 0.0 -0.9135442 0.40673947
outer loop
vertex 1.5009999 -0.27893296 0.11043737
vertex 1.5009999 -0.27144814 0.1277338
vertex -0.001 -0.27144814 0.1277338
endloop
endfacet
facet normal 0.0 -0.92186433 0.38751277
outer loop
vertex 1.5009999 -0.27893296 0.11043737
vertex -0.001 -0.27144814 0.1277338
vertex -0.001 -0.27893296 0.11043737
endloop
endfacet
facet normal 0.0 -0.9372809 0.34857488
outer loop
vertex 1.5009999 -0.28531697 0.0927051
vertex 1.5009999 -0.27893296 0.11043737
vertex -0.001 -0.27893296 0.11043737
endloop
endfacet
facet normal 0.0 -0.94437736 0.32886374
outer loop
vertex 1.5009999 -0.28531697 0.0927051
vertex -0.001 -0.27893296 0.11043737
vertex -0.001 -0.28531697 0.0927051
endloop
endfacet
facet normal 0.0 -0.9573186 0.28903472
outer loop
vertex 1.5009999 -0.29057497 0.07460697
vertex 1.5009999 -0.28531697 0.0927051
vertex -0.001 -0.28531697 0.0927051
endloop
endfacet
facet normal 0.0 -0.96316344 0.26891688
outer loop
vertex 1.5009999 -0.29057497 0.07460697
vertex -0.001 -0.28531697 0.0927051
vertex -0.001 -0.29057497 0.07460697
endloop
endfacet
facet normal 0.0 -0.97357816 0.22835384
outer loop
vertex 1.5009999 -0.29468617 0.056214396
vertex 1.5009999 -0.29057497 0.07460697
vertex -0.001 -0.29057497 0.07460697
endloop
endfacet
facet normal 0.0 -0.9781482 0.2079087
outer loop
vertex 1.5009999 -0.29468617 0.056214396
vertex -0.001 -0.29057497 0.07460697
vertex -0.001 -0.29468617 0.056214396
endloop
endfacet
facet normal 0.0 -0.98599553 0.16677178
outer loop
vertex 1.5009999 -0.29763442 0.037599973
vertex 1.5009999 -0.29468617 0.056214396
vertex -0.001 -0.29468617 0.056214396
endloop
endfacet
facet normal 0.0 -0.9892728 0.14608
outer loop
vertex 1.5009999 -0.29763442 0.037599973
vertex -0.001 -0.29468617 0.056214396
vertex -0.001 -0.29763442 0.037599973
endloop
endfacet
facet normal 0.0 -0.9964931 0.083674796
outer loop
vertex 1.5009999 -0.29940802 0.018837158
vertex -0.001 -0.29763442 0.037599973
vertex -0.001 -0.29940802 0.018837158
endloop
endfacet
facet normal 0.0 -0.9945216 0.10453151
outer loop
vertex 1.5009999 -0.29940802 0.018837158
vertex 1.5009999 -0.29763442 0.037599973
vertex -0.001 -0.29763442 0.037599973
endloop
endfacet
facet normal 0.0 -0.9991227 0.04187872
outer loop
vertex 1.5009999 -0.29940802 0.018837158
vertex -0.001 -0.29940802 0.018837158
vertex -0.001 -0.3 7.347881E-17
endloop
endfacet
facet normal 0.0 -0.9997807 0.02093936
outer loop
vertex 1.5009999 -0.3 7.347881E-17
vertex 1.5009999 -0.29940802 0.018837158
vertex -0.001 -0.3 7.347881E-17
endloop
endfacet
endsolid cylinder
solid disk2
facet normal 1.0 0.0 0.0
outer loop
vertex 1.5009999 0.2532984 0.16074805
vertex 1.5009999 0.2427051 0.17633557
vertex 1.5009999 0.23115398 0.19122721
endloop
endfacet
facet normal 1.0 0.0 0.0
outer loop
vertex 1.5009999 0.2532984 0.16074805
vertex 1.5009999 0.23115398 0.19122721
vertex 1.5009999 0.21869059 0.20536415
endloop
endfacet
facet normal 1.0 0.0 0.0
outer loop
vertex 1.5009999 0.2532984 0.16074805
vertex 1.5009999 0.21869059 0.20536415
vertex 1.5009999 0.20536415 0.21869059
endloop
endfacet
facet normal 1.0 0.0 0.0
outer loop
vertex 1.5009999 0.262892 0.14452611
vertex 1.5009999 0.2532984 0.16074805
vertex 1.5009999 0.20536415 0.21869059
endloop
endfacet
facet normal 1.0 0.0 0.0
outer loop
vertex 1.5009999 0.1277338 0.27144814
vertex 1.5009999 0.20536415 0.21869059
vertex 1.5009999 0.19122721 0.23115398
endloop
endfacet
facet normal 1.0 0.0 0.0
outer loop
vertex 1.5009999 0.1277338 0.27144814
vertex 1.5009999 0.19122721 0.23115398
vertex 1.5009999 0.17633557 0.2427051
endloop
endfacet
facet normal 1.0 0.0 0.0
outer loop
vertex 1.5009999 0.1277338 0.27144814
vertex 1.5009999 0.17633557 0.2427051
vertex 1.5009999 0.16074805 0.2532984
endloop
endfacet
facet normal 1.0 0.0 0.0
outer loop
vertex 1.5009999 0.1277338 0.27144814
vertex 1.5009999 0.16074805 0.2532984
vertex 1.5009999 0.14452611 0.262892
endloop
endfacet
facet normal 1.0 0.0 0.0
outer loop
vertex 1.5009999 0.11043737 0.27893296
vertex 1.5009999 0.20536415 0.21869059
vertex 1.5009999 0.1277338 0.27144814
endloop
endfacet
facet normal 1.0 0.0 0.0
outer loop
vertex 1.5009999 0.28531697 0.0927051
vertex 1.5009999 0.262892 0.14452611
vertex 1.5009999 0.20536415 0.21869059
endloop
endfacet
facet normal 1.0 0.0 0.0
outer loop
vertex 1.5009999 0.28531697 0.0927051
vertex 1.5009999 0.27893296 0.11043737
vertex 1.5009999 0.27144814 0.1277338
endloop
endfacet
facet normal 1.0 0.0 0.0
outer loop
vertex 1.5009999 0.28531697 0.0927051
vertex 1.5009999 0.27144814 0.1277338
vertex 1.5009999 0.262892 0.14452611
endloop
endfacet
facet normal 1.0 0.0 0.0
outer loop
vertex 1.5009999 0.29468617 0.056214396
vertex 1.5009999 0.29057497 0.07460697
vertex 1.5009999 0.28531697 0.0927051
endloop
endfacet
facet normal 1.0 0.0 0.0
outer loop
vertex 1.5009999 0.056214396 0.29468617
vertex 1.5009999 0.11043737 0.27893296
vertex 1.5009999 0.0927051 0.28531697
endloop
endfacet
facet normal 1.0 0.0 0.0
outer loop
vertex 1.5009999 0.056214396 0.29468617
vertex 1.5009999 0.0927051 0.28531697
vertex 1.5009999 0.07460697 0.29057497
endloop
endfacet
facet normal 1.0 0.0 0.0
outer loop
vertex 1.5009999 0.037599973 0.29763442
vertex 1.5009999 0.28531697 0.0927051
vertex 1.5009999 0.20536415 0.21869059
endloop
endfacet
facet normal 1.0 0.0 0.0
outer loop
vertex 1.5009999 0.037599973 0.29763442
vertex 1.5009999 0.20536415 0.21869059
vertex 1.5009999 0.11043737 0.27893296
endloop
endfacet
facet normal 1.0 0.0 0.0
outer loop
vertex 1.5009999 0.037599973 0.29763442
vertex 1.5009999 0.11043737 0.27893296
vertex 1.5009999 0.056214396 0.29468617
endloop
endfacet
facet normal 1.0 0.0 0.0
outer loop
vertex 1.5009999 0.3 7.626212E-16
vertex 1.5009999 0.29940802 0.018837158
vertex 1.5009999 0.29763442 0.037599973
endloop
endfacet
facet normal 1.0 0.0 0.0
outer loop
vertex 1.5009999 0.3 7.626212E-16
vertex 1.5009999 0.29763442 0.037599973
vertex 1.5009999 0.29468617 0.056214396
endloop
endfacet
facet normal 1.0 0.0 0.0
outer loop
vertex 1.5009999 0.29940802 -0.018837158
vertex 1.5009999 0.29468617 0.056214396
vertex 1.5009999 0.28531697 0.0927051
endloop
endfacet
facet normal 1.0 0.0 0.0
outer loop
vertex 1.5009999 0.29940802 -0.018837158
vertex 1.5009999 0.3 7.626212E-16
vertex 1.5009999 0.29468617 0.056214396
endloop
endfacet
facet normal 1.0 0.0 0.0
outer loop
vertex 1.5009999 -0.037599973 0.29763442
vertex 1.5009999 5.5109105E-17 0.3
vertex 1.5009999 -0.018837158 0.29940802
endloop
endfacet
facet normal 1.0 0.0 0.0
outer loop
vertex 1.5009999 0.29468617 -0.056214396
vertex 1.5009999 0.28531697 0.0927051
vertex 1.5009999 0.037599973 0.29763442
endloop
endfacet
facet normal 1.0 0.0 0.0
outer loop
vertex 1.5009999 0.29468617 -0.056214396
vertex 1.5009999 0.29763442 -0.037599973
vertex 1.5009999 0.29940802 -0.018837158
endloop
endfacet
facet normal 1.0 0.0 0.0
outer loop
vertex 1.5009999 0.29468617 -0.056214396
vertex 1.5009999 0.29940802 -0.018837158
vertex 1.5009999 0.28531697 0.0927051
endloop
endfacet
facet normal 1.0 0.0 0.0
outer loop
vertex 1.5009999 0.29468617 -0.056214396
vertex 1.5009999 0.037599973 0.29763442
vertex 1.5009999 0.018837158 0.29940802
endloop
endfacet
facet normal 1.0 0.0 0.0
outer loop
vertex 1.5009999 -0.056214396 0.29468617
vertex 1.5009999 5.5109105E-17 0.3
vertex 1.5009999 -0.037599973 0.29763442
endloop
endfacet
facet normal 1.0 0.0 0.0
outer loop
vertex 1.5009999 0.28531697 -0.0927051
vertex 1.5009999 0.29057497 -0.07460697
vertex 1.5009999 0.29468617 -0.056214396
endloop
endfacet
facet normal 1.0 0.0 0.0
outer loop
vertex 1.5009999 -0.0927051 0.28531697
vertex 1.5009999 -0.056214396 0.29468617
vertex 1.5009999 -0.07460697 0.29057497
endloop
endfacet
facet normal 1.0 0.0 0.0
outer loop
vertex 1.5009999 -0.11043737 0.27893296
vertex 1.5009999 5.5109105E-17 0.3
vertex 1.5009999 -0.056214396 0.29468617
endloop
endfacet
facet normal 1.0 0.0 0.0
outer loop
vertex 1.5009999 -0.11043737 0.27893296
vertex 1.5009999 -0.056214396 0.29468617
vertex 1.5009999 -0.0927051 0.28531697
endloop
endfacet
facet normal 1.0 0.0 0.0
outer loop
vertex 1.5009999 -0.11043737 0.27893296
vertex 1.5009999 0.018837158 0.29940802
vertex 1.5009999 5.5109105E-17 0.3
endloop
endfacet
facet normal 1.0 0.0 0.0
outer loop
vertex 1.5009999 0.27893296 -0.11043737
vertex 1.5009999 0.28531697 -0.0927051
vertex 1.5009999 0.29468617 -0.056214396
endloop
endfacet
facet normal 1.0 0.0 0.0
outer loop
vertex 1.5009999 0.27893296 -0.11043737
vertex 1.5009999 0.29468617 -0.056214396
vertex 1.5009999 0.018837158 0.29940802
endloop
endfacet
facet normal 1.0 0.0 0.0
outer loop
vertex 1.5009999 -0.14452611 0.262892
vertex 1.5009999 0.018837158 0.29940802
vertex 1.5009999 -0.11043737 0.27893296
endloop
endfacet
facet normal 1.0 0.0 0.0
outer loop
vertex 1.5009999 -0.14452611 0.262892
vertex 1.5009999 0.27893296 -0.11043737
vertex 1.5009999 0.018837158 0.29940802
endloop
endfacet
facet normal 1.0 0.0 0.0
outer loop
vertex 1.5009999 -0.14452611 0.262892
vertex 1.5009999 -0.11043737 0.27893296
vertex 1.5009999 -0.1277338 0.27144814
endloop
endfacet
facet normal 1.0 0.0 0.0
outer loop
vertex 1.5009999 0.2427051 -0.17633557
vertex 1.5009999 0.2532984 -0.16074805
vertex 1.5009999 0.262892 -0.14452611
endloop
endfacet
facet normal 1.0 0.0 0.0
outer loop
vertex 1.5009999 -0.19122721 0.23115398
vertex 1.5009999 -0.14452611 0.262892
vertex 1.5009999 -0.16074805 0.2532984
endloop
endfacet
facet normal 1.0 0.0 0.0
outer loop
vertex 1.5009999 -0.19122721 0.23115398
vertex 1.5009999 -0.16074805 0.2532984
vertex 1.5009999 -0.17633557 0.2427051
endloop
endfacet
facet normal 1.0 0.0 0.0
outer loop
vertex 1.5009999 0.23115398 -0.19122721
vertex 1.5009999 0.262892 -0.14452611
vertex 1.5009999 0.27144814 -0.1277338
endloop
endfacet
facet normal 1.0 0.0 0.0
outer loop
vertex 1.5009999 0.23115398 -0.19122721
vertex 1.5009999 0.27144814 -0.1277338
vertex 1.5009999 0.27893296 -0.11043737
endloop
endfacet
facet normal 1.0 0.0 0.0
outer loop
vertex 1.5009999 0.23115398 -0.19122721
vertex 1.5009999 0.2427051 -0.17633557
vertex 1.5009999 0.262892 -0.14452611
endloop
endfacet
facet normal 1.0 0.0 0.0
outer loop
vertex 1.5009999 -0.20536415 0.21869059
vertex 1.5009999 -0.14452611 0.262892
vertex 1.5009999 -0.19122721 0.23115398
endloop
endfacet
facet normal 1.0 0.0 0.0
outer loop
vertex 1.5009999 -0.21869059 0.20536415
vertex 1.5009999 -0.14452611 0.262892
vertex 1.5009999 -0.20536415 0.21869059
endloop
endfacet
facet normal 1.0 0.0 0.0
outer loop
vertex 1.5009999 0.20536415 -0.21869059
vertex 1.5009999 0.21869059 -0.20536415
vertex 1.5009999 0.23115398 -0.19122721
endloop
endfacet
facet normal 1.0 0.0 0.0
outer loop
vertex 1.5009999 0.16074805 -0.2532984
vertex 1.5009999 -0.14452611 0.262892
vertex 1.5009999 -0.21869059 0.20536415
endloop
endfacet
facet normal 1.0 0.0 0.0
outer loop
vertex 1.5009999 0.16074805 -0.2532984
vertex 1.5009999 0.20536415 -0.21869059
vertex 1.5009999 0.23115398 -0.19122721
endloop
endfacet
facet normal 1.0 0.0 0.0
outer loop
vertex 1.5009999 0.16074805 -0.2532984
vertex 1.5009999 0.17633557 -0.2427051
vertex 1.5009999 0.19122721 -0.23115398
endloop
endfacet
facet normal 1.0 0.0 0.0
outer loop
vertex 1.5009999 0.16074805 -0.2532984
vertex 1.5009999 0.19122721 -0.23115398
vertex 1.5009999 0.20536415 -0.21869059
endloop
endfacet
facet normal 1.0 0.0 0.0
outer loop
vertex 1.5009999 0.16074805 -0.2532984
vertex 1.5009999 0.27893296 -0.11043737
vertex 1.5009999 -0.14452611 0.262892
endloop
endfacet
facet normal 1.0 0.0 0.0
outer loop
vertex 1.5009999 0.16074805 -0.2532984
vertex 1.5009999 0.23115398 -0.19122721
vertex 1.5009999 0.27893296 -0.11043737
endloop
endfacet
facet normal 1.0 0.0 0.0
outer loop
vertex 1.5009999 -0.27144814 0.1277338
vertex 1.5009999 -0.2532984 0.16074805
vertex 1.5009999 -0.262892 0.14452611
endloop
endfacet
facet normal 1.0 0.0 0.0
outer loop
vertex 1.5009999 -0.27893296 0.11043737
vertex 1.5009999 -0.2532984 0.16074805
vertex 1.5009999 -0.27144814 0.1277338
endloop
endfacet
facet normal 1.0 0.0 0.0
outer loop
vertex 1.5009999 -0.27893296 0.11043737
vertex 1.5009999 -0.2427051 0.17633557
vertex 1.5009999 -0.2532984 0.16074805
endloop
endfacet
facet normal 1.0 0.0 0.0
outer loop
vertex 1.5009999 0.11043737 -0.27893296
vertex 1.5009999 0.1277338 -0.27144814
vertex 1.5009999 0.14452611 -0.262892
endloop
endfacet
facet normal 1.0 0.0 0.0
outer loop
vertex 1.5009999 0.0927051 -0.28531697
vertex 1.5009999 0.11043737 -0.27893296
vertex 1.5009999 0.14452611 -0.262892
endloop
endfacet
facet normal 1.0 0.0 0.0
outer loop
vertex 1.5009999 0.0927051 -0.28531697
vertex 1.5009999 0.14452611 -0.262892
vertex 1.5009999 0.16074805 -0.2532984
endloop
endfacet
facet normal 1.0 0.0 0.0
outer loop
vertex 1.5009999 -0.29468617 0.056214396
vertex 1.5009999 -0.2427051 0.17633557
vertex 1.5009999 -0.27893296 0.11043737
endloop
endfacet
facet normal 1.0 0.0 0.0
outer loop
vertex 1.5009999 -0.29468617 0.056214396
vertex 1.5009999 -0.27893296 0.11043737
vertex 1.5009999 -0.28531697 0.0927051
endloop
endfacet
facet normal 1.0 0.0 0.0
outer loop
vertex 1.5009999 -0.29468617 0.056214396
vertex 1.5009999 -0.28531697 0.0927051
vertex 1.5009999 -0.29057497 0.07460697
endloop
endfacet
facet normal 1.0 0.0 0.0
outer loop
vertex 1.5009999 -0.29763442 0.037599973
vertex 1.5009999 -0.2427051 0.17633557
vertex 1.5009999 -0.29468617 0.056214396
endloop
endfacet
facet normal 1.0 0.0 0.0
outer loop
vertex 1.5009999 -0.29940802 0.018837158
vertex 1.5009999 -0.2427051 0.17633557
vertex 1.5009999 -0.29763442 0.037599973
endloop
endfacet
facet normal 1.0 0.0 0.0
outer loop
vertex 1.5009999 -0.29940802 0.018837158
vertex 1.5009999 -0.21869059 0.20536415
vertex 1.5009999 -0.23115398 0.19122721
endloop
endfacet
facet normal 1.0 0.0 0.0
outer loop
vertex 1.5009999 -0.29940802 0.018837158
vertex 1.5009999 -0.23115398 0.19122721
vertex 1.5009999 -0.2427051 0.17633557
endloop
endfacet
facet normal 1.0 0.0 0.0
outer loop
vertex 1.5009999 0.018837158 -0.29940802
vertex 1.5009999 0.037599973 -0.29763442
vertex 1.5009999 0.056214396 -0.29468617
endloop
endfacet
facet normal 1.0 0.0 0.0
outer loop
vertex 1.5009999 0.018837158 -0.29940802
vertex 1.5009999 0.056214396 -0.29468617
vertex 1.5009999 0.07460697 -0.29057497
endloop
endfacet
facet normal 1.0 0.0 0.0
outer loop
vertex 1.5009999 0.018837158 -0.29940802
vertex 1.5009999 0.07460697 -0.29057497
vertex 1.5009999 0.0927051 -0.28531697
endloop
endfacet
facet normal 1.0 0.0 0.0
outer loop
vertex 1.5009999 -0.037599973 -0.29763442
vertex 1.5009999 -0.018837158 -0.29940802
vertex 1.5009999 1.8147046E-16 -0.3
endloop
endfacet
facet normal 1.0 0.0 0.0
outer loop
vertex 1.5009999 -0.037599973 -0.29763442
vertex 1.5009999 1.8147046E-16 -0.3
vertex 1.5009999 0.018837158 -0.29940802
endloop
endfacet
facet normal 1.0 0.0 0.0
outer loop
vertex 1.5009999 -0.07460697 -0.29057497
vertex 1.5009999 -0.056214396 -0.29468617
vertex 1.5009999 -0.037599973 -0.29763442
endloop
endfacet
facet normal 1.0 0.0 0.0
outer loop
vertex 1.5009999 -0.28531697 -0.0927051
vertex 1.5009999 -0.3 7.347881E-17
vertex 1.5009999 -0.29940802 -0.018837158
endloop
endfacet
facet normal 1.0 0.0 0.0
outer loop
vertex 1.5009999 -0.28531697 -0.0927051
vertex 1.5009999 -0.29940802 -0.018837158
vertex 1.5009999 -0.29763442 -0.037599973
endloop
endfacet
facet normal 1.0 0.0 0.0
outer loop
vertex 1.5009999 -0.28531697 -0.0927051
vertex 1.5009999 -0.29763442 -0.037599973
vertex 1.5009999 -0.29468617 -0.056214396
endloop
endfacet
facet normal 1.0 0.0 0.0
outer loop
vertex 1.5009999 -0.28531697 -0.0927051
vertex 1.5009999 -0.29468617 -0.056214396
vertex 1.5009999 -0.29057497 -0.07460697
endloop
endfacet
facet normal 1.0 0.0 0.0
outer loop
vertex 1.5009999 -0.28531697 -0.0927051
vertex 1.5009999 0.16074805 -0.2532984
vertex 1.5009999 -0.21869059 0.20536415
endloop
endfacet
facet normal 1.0 0.0 0.0
outer loop
vertex 1.5009999 -0.28531697 -0.0927051
vertex 1.5009999 0.0927051 -0.28531697
vertex 1.5009999 0.16074805 -0.2532984
endloop
endfacet
facet normal 1.0 0.0 0.0
outer loop
vertex 1.5009999 -0.28531697 -0.0927051
vertex 1.5009999 -0.21869059 0.20536415
vertex 1.5009999 -0.29940802 0.018837158
endloop
endfacet
facet normal 1.0 0.0 0.0
outer loop
vertex 1.5009999 -0.28531697 -0.0927051
vertex 1.5009999 -0.29940802 0.018837158
vertex 1.5009999 -0.3 7.347881E-17
endloop
endfacet
facet normal 1.0 0.0 0.0
outer loop
vertex 1.5009999 -0.11043737 -0.27893296
vertex 1.5009999 -0.0927051 -0.28531697
vertex 1.5009999 -0.07460697 -0.29057497
endloop
endfacet
facet normal 1.0 0.0 0.0
outer loop
vertex 1.5009999 -0.1277338 -0.27144814
vertex 1.5009999 -0.28531697 -0.0927051
vertex 1.5009999 -0.27893296 -0.11043737
endloop
endfacet
facet normal 1.0 0.0 0.0
outer loop
vertex 1.5009999 -0.1277338 -0.27144814
vertex 1.5009999 -0.27893296 -0.11043737
vertex 1.5009999 -0.27144814 -0.1277338
endloop
endfacet
facet normal 1.0 0.0 0.0
outer loop
vertex 1.5009999 -0.1277338 -0.27144814
vertex 1.5009999 -0.037599973 -0.29763442
vertex 1.5009999 0.018837158 -0.29940802
endloop
endfacet
facet normal 1.0 0.0 0.0
outer loop
vertex 1.5009999 -0.1277338 -0.27144814
vertex 1.5009999 0.018837158 -0.29940802
vertex 1.5009999 0.0927051 -0.28531697
endloop
endfacet
facet normal 1.0 0.0 0.0
outer loop
vertex 1.5009999 -0.1277338 -0.27144814
vertex 1.5009999 0.0927051 -0.28531697
vertex 1.5009999 -0.28531697 -0.0927051
endloop
endfacet
facet normal 1.0 0.0 0.0
outer loop
vertex 1.5009999 -0.1277338 -0.27144814
vertex 1.5009999 -0.11043737 -0.27893296
vertex 1.5009999 -0.07460697 -0.29057497
endloop
endfacet
facet normal 1.0 0.0 0.0
outer loop
vertex 1.5009999 -0.1277338 -0.27144814
vertex 1.5009999 -0.07460697 -0.29057497
vertex 1.5009999 -0.037599973 -0.29763442
endloop
endfacet
facet normal 1.0 0.0 0.0
outer loop
vertex 1.5009999 -0.16074805 -0.2532984
vertex 1.5009999 -0.14452611 -0.262892
vertex 1.5009999 -0.1277338 -0.27144814
endloop
endfacet
facet normal 1.0 0.0 0.0
outer loop
vertex 1.5009999 -0.16074805 -0.2532984
vertex 1.5009999 -0.1277338 -0.27144814
vertex 1.5009999 -0.27144814 -0.1277338
endloop
endfacet
facet normal 1.0 0.0 0.0
outer loop
vertex 1.5009999 -0.2427051 -0.17633557
vertex 1.5009999 -0.262892 -0.14452611
vertex 1.5009999 -0.2532984 -0.16074805
endloop
endfacet
facet normal 1.0 0.0 0.0
outer loop
vertex 1.5009999 -0.19122721 -0.23115398
vertex 1.5009999 -0.17633557 -0.2427051
vertex 1.5009999 -0.16074805 -0.2532984
endloop
endfacet
facet normal 1.0 0.0 0.0
outer loop
vertex 1.5009999 -0.21869059 -0.20536415
vertex 1.5009999 -0.27144814 -0.1277338
vertex 1.5009999 -0.262892 -0.14452611
endloop
endfacet
facet normal 1.0 0.0 0.0
outer loop
vertex 1.5009999 -0.21869059 -0.20536415
vertex 1.5009999 -0.2427051 -0.17633557
vertex 1.5009999 -0.23115398 -0.19122721
endloop
endfacet
facet normal 1.0 0.0 0.0
outer loop
vertex 1.5009999 -0.21869059 -0.20536415
vertex 1.5009999 -0.262892 -0.14452611
vertex 1.5009999 -0.2427051 -0.17633557
endloop
endfacet
facet normal 1.0 0.0 0.0
outer loop
vertex 1.5009999 -0.20536415 -0.21869059
vertex 1.5009999 -0.16074805 -0.2532984
vertex 1.5009999 -0.27144814 -0.1277338
endloop
endfacet
facet normal 1.0 0.0 0.0
outer loop
vertex 1.5009999 -0.20536415 -0.21869059
vertex 1.5009999 -0.27144814 -0.1277338
vertex 1.5009999 -0.21869059 -0.20536415
endloop
endfacet
facet normal 1.0 0.0 0.0
outer loop
vertex 1.5009999 -0.20536415 -0.21869059
vertex 1.5009999 -0.19122721 -0.23115398
vertex 1.5009999 -0.16074805 -0.2532984
endloop
endfacet
endsolid disk2
solid disk1
facet normal -1.0 0.0 0.0
outer loop
vertex -0.001 0.23115398 0.19122721
vertex -0.001 0.2427051 0.17633557
vertex -0.001 0.2532984 0.16074805
endloop
endfacet
facet normal -1.0 0.0 0.0
outer loop
vertex -0.001 0.21869059 0.20536415
vertex -0.001 0.23115398 0.19122721
vertex -0.001 0.2532984 0.16074805
endloop
endfacet
facet normal -1.0 0.0 0.0
outer loop
vertex -0.001 0.20536415 0.21869059
vertex -0.001 0.21869059 0.20536415
vertex -0.001 0.2532984 0.16074805
endloop
endfacet
facet normal -1.0 0.0 0.0
outer loop
vertex -0.001 0.20536415 0.21869059
vertex -0.001 0.2532984 0.16074805
vertex -0.001 0.262892 0.14452611
endloop
endfacet
facet normal -1.0 0.0 0.0
outer loop
vertex -0.001 0.19122721 0.23115398
vertex -0.001 0.20536415 0.21869059
vertex -0.001 0.1277338 0.27144814
endloop
endfacet
facet normal -1.0 0.0 0.0
outer loop
vertex -0.001 0.17633557 0.2427051
vertex -0.001 0.19122721 0.23115398
vertex -0.001 0.1277338 0.27144814
endloop
endfacet
facet normal -1.0 0.0 0.0
outer loop
vertex -0.001 0.16074805 0.2532984
vertex -0.001 0.17633557 0.2427051
vertex -0.001 0.1277338 0.27144814
endloop
endfacet
facet normal -1.0 0.0 0.0
outer loop
vertex -0.001 0.14452611 0.262892
vertex -0.001 0.16074805 0.2532984
vertex -0.001 0.1277338 0.27144814
endloop
endfacet
facet normal -1.0 0.0 0.0
outer loop
vertex -0.001 0.1277338 0.27144814
vertex -0.001 0.20536415 0.21869059
vertex -0.001 0.11043737 0.27893296
endloop
endfacet
facet normal -1.0 0.0 0.0
outer loop
vertex -0.001 0.20536415 0.21869059
vertex -0.001 0.262892 0.14452611
vertex -0.001 0.28531697 0.0927051
endloop
endfacet
facet normal -1.0 0.0 0.0
outer loop
vertex -0.001 0.27144814 0.1277338
vertex -0.001 0.27893296 0.11043737
vertex -0.001 0.28531697 0.0927051
endloop
endfacet
facet normal -1.0 0.0 0.0
outer loop
vertex -0.001 0.262892 0.14452611
vertex -0.001 0.27144814 0.1277338
vertex -0.001 0.28531697 0.0927051
endloop
endfacet
facet normal -1.0 0.0 0.0
outer loop
vertex -0.001 0.28531697 0.0927051
vertex -0.001 0.29057497 0.07460697
vertex -0.001 0.29468617 0.056214396
endloop
endfacet
facet normal -1.0 0.0 0.0
outer loop
vertex -0.001 0.0927051 0.28531697
vertex -0.001 0.11043737 0.27893296
vertex -0.001 0.056214396 0.29468617
endloop
endfacet
facet normal -1.0 0.0 0.0
outer loop
vertex -0.001 0.07460697 0.29057497
vertex -0.001 0.0927051 0.28531697
vertex -0.001 0.056214396 0.29468617
endloop
endfacet
facet normal -1.0 0.0 0.0
outer loop
vertex -0.001 0.20536415 0.21869059
vertex -0.001 0.28531697 0.0927051
vertex -0.001 0.037599973 0.29763442
endloop
endfacet
facet normal -1.0 0.0 0.0
outer loop
vertex -0.001 0.11043737 0.27893296
vertex -0.001 0.20536415 0.21869059
vertex -0.001 0.037599973 0.29763442
endloop
endfacet
facet normal -1.0 0.0 0.0
outer loop
vertex -0.001 0.056214396 0.29468617
vertex -0.001 0.11043737 0.27893296
vertex -0.001 0.037599973 0.29763442
endloop
endfacet
facet normal -1.0 0.0 0.0
outer loop
vertex -0.001 0.29763442 0.037599973
vertex -0.001 0.29940802 0.018837158
vertex -0.001 0.3 7.626212E-16
endloop
endfacet
facet normal -1.0 0.0 0.0
outer loop
vertex -0.001 0.29468617 0.056214396
vertex -0.001 0.29763442 0.037599973
vertex -0.001 0.3 7.626212E-16
endloop
endfacet
facet normal -1.0 0.0 0.0
outer loop
vertex -0.001 0.28531697 0.0927051
vertex -0.001 0.29468617 0.056214396
vertex -0.001 0.29940802 -0.018837158
endloop
endfacet
facet normal -1.0 0.0 0.0
outer loop
vertex -0.001 0.29468617 0.056214396
vertex -0.001 0.3 7.626212E-16
vertex -0.001 0.29940802 -0.018837158
endloop
endfacet
facet normal -1.0 0.0 0.0
outer loop
vertex -0.001 -0.018837158 0.29940802
vertex -0.001 5.5109105E-17 0.3
vertex -0.001 -0.037599973 0.29763442
endloop
endfacet
facet normal -1.0 0.0 0.0
outer loop
vertex -0.001 0.037599973 0.29763442
vertex -0.001 0.28531697 0.0927051
vertex -0.001 0.29468617 -0.056214396
endloop
endfacet
facet normal -1.0 0.0 0.0
outer loop
vertex -0.001 0.29940802 -0.018837158
vertex -0.001 0.29763442 -0.037599973
vertex -0.001 0.29468617 -0.056214396
endloop
endfacet
facet normal -1.0 0.0 0.0
outer loop
vertex -0.001 0.28531697 0.0927051
vertex -0.001 0.29940802 -0.018837158
vertex -0.001 0.29468617 -0.056214396
endloop
endfacet
facet normal -1.0 0.0 0.0
outer loop
vertex -0.001 0.018837158 0.29940802
vertex -0.001 0.037599973 0.29763442
vertex -0.001 0.29468617 -0.056214396
endloop
endfacet
facet normal -1.0 0.0 0.0
outer loop
vertex -0.001 -0.037599973 0.29763442
vertex -0.001 5.5109105E-17 0.3
vertex -0.001 -0.056214396 0.29468617
endloop
endfacet
facet normal -1.0 0.0 0.0
outer loop
vertex -0.001 0.29468617 -0.056214396
vertex -0.001 0.29057497 -0.07460697
vertex -0.001 0.28531697 -0.0927051
endloop
endfacet
facet normal -1.0 0.0 0.0
outer loop
vertex -0.001 -0.07460697 0.29057497
vertex -0.001 -0.056214396 0.29468617
vertex -0.001 -0.0927051 0.28531697
endloop
endfacet
facet normal -1.0 0.0 0.0
outer loop
vertex -0.001 -0.056214396 0.29468617
vertex -0.001 5.5109105E-17 0.3
vertex -0.001 -0.11043737 0.27893296
endloop
endfacet
facet normal -1.0 0.0 0.0
outer loop
vertex -0.001 -0.0927051 0.28531697
vertex -0.001 -0.056214396 0.29468617
vertex -0.001 -0.11043737 0.27893296
endloop
endfacet
facet normal -1.0 0.0 0.0
outer loop
vertex -0.001 5.5109105E-17 0.3
vertex -0.001 0.018837158 0.29940802
vertex -0.001 -0.11043737 0.27893296
endloop
endfacet
facet normal -1.0 0.0 0.0
outer loop
vertex -0.001 0.29468617 -0.056214396
vertex -0.001 0.28531697 -0.0927051
vertex -0.001 0.27893296 -0.11043737
endloop
endfacet
facet normal -1.0 0.0 0.0
outer loop
vertex -0.001 0.018837158 0.29940802
vertex -0.001 0.29468617 -0.056214396
vertex -0.001 0.27893296 -0.11043737
endloop
endfacet
facet normal -1.0 0.0 0.0
outer loop
vertex -0.001 -0.11043737 0.27893296
vertex -0.001 0.018837158 0.29940802
vertex -0.001 -0.14452611 0.262892
endloop
endfacet
facet normal -1.0 0.0 0.0
outer loop
vertex -0.001 0.018837158 0.29940802
vertex -0.001 0.27893296 -0.11043737
vertex -0.001 -0.14452611 0.262892
endloop
endfacet
facet normal -1.0 0.0 0.0
outer loop
vertex -0.001 -0.1277338 0.27144814
vertex -0.001 -0.11043737 0.27893296
vertex -0.001 -0.14452611 0.262892
endloop
endfacet
facet normal -1.0 0.0 0.0
outer loop
vertex -0.001 0.262892 -0.14452611
vertex -0.001 0.2532984 -0.16074805
vertex -0.001 0.2427051 -0.17633557
endloop
endfacet
facet normal -1.0 0.0 0.0
outer loop
vertex -0.001 -0.16074805 0.2532984
vertex -0.001 -0.14452611 0.262892
vertex -0.001 -0.19122721 0.23115398
endloop
endfacet
facet normal -1.0 0.0 0.0
outer loop
vertex -0.001 -0.17633557 0.2427051
vertex -0.001 -0.16074805 0.2532984
vertex -0.001 -0.19122721 0.23115398
endloop
endfacet
facet normal -1.0 0.0 0.0
outer loop
vertex -0.001 0.27144814 -0.1277338
vertex -0.001 0.262892 -0.14452611
vertex -0.001 0.23115398 -0.19122721
endloop
endfacet
facet normal -1.0 0.0 0.0
outer loop
vertex -0.001 0.27893296 -0.11043737
vertex -0.001 0.27144814 -0.1277338
vertex -0.001 0.23115398 -0.19122721
endloop
endfacet
facet normal -1.0 0.0 0.0
outer loop
vertex -0.001 0.262892 -0.14452611
vertex -0.001 0.2427051 -0.17633557
vertex -0.001 0.23115398 -0.19122721
endloop
endfacet
facet normal -1.0 0.0 0.0
outer loop
vertex -0.001 -0.19122721 0.23115398
vertex -0.001 -0.14452611 0.262892
vertex -0.001 -0.20536415 0.21869059
endloop
endfacet
facet normal -1.0 0.0 0.0
outer loop
vertex -0.001 -0.20536415 0.21869059
vertex -0.001 -0.14452611 0.262892
vertex -0.001 -0.21869059 0.20536415
endloop
endfacet
facet normal -1.0 0.0 0.0
outer loop
vertex -0.001 0.23115398 -0.19122721
vertex -0.001 0.21869059 -0.20536415
vertex -0.001 0.20536415 -0.21869059
endloop
endfacet
facet normal -1.0 0.0 0.0
outer loop
vertex -0.001 -0.21869059 0.20536415
vertex -0.001 -0.14452611 0.262892
vertex -0.001 0.16074805 -0.2532984
endloop
endfacet
facet normal -1.0 0.0 0.0
outer loop
vertex -0.001 0.23115398 -0.19122721
vertex -0.001 0.20536415 -0.21869059
vertex -0.001 0.16074805 -0.2532984
endloop
endfacet
facet normal -1.0 0.0 0.0
outer loop
vertex -0.001 0.19122721 -0.23115398
vertex -0.001 0.17633557 -0.2427051
vertex -0.001 0.16074805 -0.2532984
endloop
endfacet
facet normal -1.0 0.0 0.0
outer loop
vertex -0.001 0.20536415 -0.21869059
vertex -0.001 0.19122721 -0.23115398
vertex -0.001 0.16074805 -0.2532984
endloop
endfacet
facet normal -1.0 0.0 0.0
outer loop
vertex -0.001 -0.14452611 0.262892
vertex -0.001 0.27893296 -0.11043737
vertex -0.001 0.16074805 -0.2532984
endloop
endfacet
facet normal -1.0 0.0 0.0
outer loop
vertex -0.001 0.27893296 -0.11043737
vertex -0.001 0.23115398 -0.19122721
vertex -0.001 0.16074805 -0.2532984
endloop
endfacet
facet normal -1.0 0.0 0.0
outer loop
vertex -0.001 -0.262892 0.14452611
vertex -0.001 -0.2532984 0.16074805
vertex -0.001 -0.27144814 0.1277338
endloop
endfacet
facet normal -1.0 0.0 0.0
outer loop
vertex -0.001 -0.27144814 0.1277338
vertex -0.001 -0.2532984 0.16074805
vertex -0.001 -0.27893296 0.11043737
endloop
endfacet
facet normal -1.0 0.0 0.0
outer loop
vertex -0.001 -0.2532984 0.16074805
vertex -0.001 -0.2427051 0.17633557
vertex -0.001 -0.27893296 0.11043737
endloop
endfacet
facet normal -1.0 0.0 0.0
outer loop
vertex -0.001 0.14452611 -0.262892
vertex -0.001 0.1277338 -0.27144814
vertex -0.001 0.11043737 -0.27893296
endloop
endfacet
facet normal -1.0 0.0 0.0
outer loop
vertex -0.001 0.14452611 -0.262892
vertex -0.001 0.11043737 -0.27893296
vertex -0.001 0.0927051 -0.28531697
endloop
endfacet
facet normal -1.0 0.0 0.0
outer loop
vertex -0.001 0.16074805 -0.2532984
vertex -0.001 0.14452611 -0.262892
vertex -0.001 0.0927051 -0.28531697
endloop
endfacet
facet normal -1.0 0.0 0.0
outer loop
vertex -0.001 -0.27893296 0.11043737
vertex -0.001 -0.2427051 0.17633557
vertex -0.001 -0.29468617 0.056214396
endloop
endfacet
facet normal -1.0 0.0 0.0
outer loop
vertex -0.001 -0.28531697 0.0927051
vertex -0.001 -0.27893296 0.11043737
vertex -0.001 -0.29468617 0.056214396
endloop
endfacet
facet normal -1.0 0.0 0.0
outer loop
vertex -0.001 -0.29057497 0.07460697
vertex -0.001 -0.28531697 0.0927051
vertex -0.001 -0.29468617 0.056214396
endloop
endfacet
facet normal -1.0 0.0 0.0
outer loop
vertex -0.001 -0.29468617 0.056214396
vertex -0.001 -0.2427051 0.17633557
vertex -0.001 -0.29763442 0.037599973
endloop
endfacet
facet normal -1.0 0.0 0.0
outer loop
vertex -0.001 -0.29763442 0.037599973
vertex -0.001 -0.2427051 0.17633557
vertex -0.001 -0.29940802 0.018837158
endloop
endfacet
facet normal -1.0 0.0 0.0
outer loop
vertex -0.001 -0.23115398 0.19122721
vertex -0.001 -0.21869059 0.20536415
vertex -0.001 -0.29940802 0.018837158
endloop
endfacet
facet normal -1.0 0.0 0.0
outer loop
vertex -0.001 -0.2427051 0.17633557
vertex -0.001 -0.23115398 0.19122721
vertex -0.001 -0.29940802 0.018837158
endloop
endfacet
facet normal -1.0 0.0 0.0
outer loop
vertex -0.001 0.056214396 -0.29468617
vertex -0.001 0.037599973 -0.29763442
vertex -0.001 0.018837158 -0.29940802
endloop
endfacet
facet normal -1.0 0.0 0.0
outer loop
vertex -0.001 0.07460697 -0.29057497
vertex -0.001 0.056214396 -0.29468617
vertex -0.001 0.018837158 -0.29940802
endloop
endfacet
facet normal -1.0 0.0 0.0
outer loop
vertex -0.001 0.0927051 -0.28531697
vertex -0.001 0.07460697 -0.29057497
vertex -0.001 0.018837158 -0.29940802
endloop
endfacet
facet normal -1.0 0.0 0.0
outer loop
vertex -0.001 1.8147046E-16 -0.3
vertex -0.001 -0.018837158 -0.29940802
vertex -0.001 -0.037599973 -0.29763442
endloop
endfacet
facet normal -1.0 0.0 0.0
outer loop
vertex -0.001 0.018837158 -0.29940802
vertex -0.001 1.8147046E-16 -0.3
vertex -0.001 -0.037599973 -0.29763442
endloop
endfacet
facet normal -1.0 0.0 0.0
outer loop
vertex -0.001 -0.037599973 -0.29763442
vertex -0.001 -0.056214396 -0.29468617
vertex -0.001 -0.07460697 -0.29057497
endloop
endfacet
facet normal -1.0 0.0 0.0
outer loop
vertex -0.001 -0.29940802 -0.018837158
vertex -0.001 -0.3 7.347881E-17
vertex -0.001 -0.28531697 -0.0927051
endloop
endfacet
facet normal -1.0 0.0 0.0
outer loop
vertex -0.001 -0.29763442 -0.037599973
vertex -0.001 -0.29940802 -0.018837158
vertex -0.001 -0.28531697 -0.0927051
endloop
endfacet
facet normal -1.0 0.0 0.0
outer loop
vertex -0.001 -0.29468617 -0.056214396
vertex -0.001 -0.29763442 -0.037599973
vertex -0.001 -0.28531697 -0.0927051
endloop
endfacet
facet normal -1.0 0.0 0.0
outer loop
vertex -0.001 -0.29057497 -0.07460697
vertex -0.001 -0.29468617 -0.056214396
vertex -0.001 -0.28531697 -0.0927051
endloop
endfacet
facet normal -1.0 0.0 0.0
outer loop
vertex -0.001 -0.21869059 0.20536415
vertex -0.001 0.16074805 -0.2532984
vertex -0.001 -0.28531697 -0.0927051
endloop
endfacet
facet normal -1.0 0.0 0.0
outer loop
vertex -0.001 0.16074805 -0.2532984
vertex -0.001 0.0927051 -0.28531697
vertex -0.001 -0.28531697 -0.0927051
endloop
endfacet
facet normal -1.0 0.0 0.0
outer loop
vertex -0.001 -0.29940802 0.018837158
vertex -0.001 -0.21869059 0.20536415
vertex -0.001 -0.28531697 -0.0927051
endloop
endfacet
facet normal -1.0 0.0 0.0
outer loop
vertex -0.001 -0.3 7.347881E-17
vertex -0.001 -0.29940802 0.018837158
vertex -0.001 -0.28531697 -0.0927051
endloop
endfacet
facet normal -1.0 0.0 0.0
outer loop
vertex -0.001 -0.07460697 -0.29057497
vertex -0.001 -0.0927051 -0.28531697
vertex -0.001 -0.11043737 -0.27893296
endloop
endfacet
facet normal -1.0 0.0 0.0
outer loop
vertex -0.001 -0.27893296 -0.11043737
vertex -0.001 -0.28531697 -0.0927051
vertex -0.001 -0.1277338 -0.27144814
endloop
endfacet
facet normal -1.0 0.0 0.0
outer loop
vertex -0.001 -0.27144814 -0.1277338
vertex -0.001 -0.27893296 -0.11043737
vertex -0.001 -0.1277338 -0.27144814
endloop
endfacet
facet normal -1.0 0.0 0.0
outer loop
vertex -0.001 0.018837158 -0.29940802
vertex -0.001 -0.037599973 -0.29763442
vertex -0.001 -0.1277338 -0.27144814
endloop
endfacet
facet normal -1.0 0.0 0.0
outer loop
vertex -0.001 0.0927051 -0.28531697
vertex -0.001 0.018837158 -0.29940802
vertex -0.001 -0.1277338 -0.27144814
endloop
endfacet
facet normal -1.0 0.0 0.0
outer loop
vertex -0.001 -0.28531697 -0.0927051
vertex -0.001 0.0927051 -0.28531697
vertex -0.001 -0.1277338 -0.27144814
endloop
endfacet
facet normal -1.0 0.0 0.0
outer loop
vertex -0.001 -0.07460697 -0.29057497
vertex -0.001 -0.11043737 -0.27893296
vertex -0.001 -0.1277338 -0.27144814
endloop
endfacet
facet normal -1.0 0.0 0.0
outer loop
vertex -0.001 -0.037599973 -0.29763442
vertex -0.001 -0.07460697 -0.29057497
vertex -0.001 -0.1277338 -0.27144814
endloop
endfacet
facet normal -1.0 0.0 0.0
outer loop
vertex -0.001 -0.1277338 -0.27144814
vertex -0.001 -0.14452611 -0.262892
vertex -0.001 -0.16074805 -0.2532984
endloop
endfacet
facet normal -1.0 0.0 0.0
outer loop
vertex -0.001 -0.27144814 -0.1277338
vertex -0.001 -0.1277338 -0.27144814
vertex -0.001 -0.16074805 -0.2532984
endloop
endfacet
facet normal -1.0 0.0 0.0
outer loop
vertex -0.001 -0.2532984 -0.16074805
vertex -0.001 -0.262892 -0.14452611
vertex -0.001 -0.2427051 -0.17633557
endloop
endfacet
facet normal -1.0 0.0 0.0
outer loop
vertex -0.001 -0.16074805 -0.2532984
vertex -0.001 -0.17633557 -0.2427051
vertex -0.001 -0.19122721 -0.23115398
endloop
endfacet
facet normal -1.0 0.0 0.0
outer loop
vertex -0.001 -0.262892 -0.14452611
vertex -0.001 -0.27144814 -0.1277338
vertex -0.001 -0.21869059 -0.20536415
endloop
endfacet
facet normal -1.0 0.0 0.0
outer loop
vertex -0.001 -0.23115398 -0.19122721
vertex -0.001 -0.2427051 -0.17633557
vertex -0.001 -0.21869059 -0.20536415
endloop
endfacet
facet normal -1.0 0.0 0.0
outer loop
vertex -0.001 -0.2427051 -0.17633557
vertex -0.001 -0.262892 -0.14452611
vertex -0.001 -0.21869059 -0.20536415
endloop
endfacet
facet normal -1.0 0.0 0.0
outer loop
vertex -0.001 -0.27144814 -0.1277338
vertex -0.001 -0.16074805 -0.2532984
vertex -0.001 -0.20536415 -0.21869059
endloop
endfacet
facet normal -1.0 0.0 0.0
outer loop
vertex -0.001 -0.21869059 -0.20536415
vertex -0.001 -0.27144814 -0.1277338
vertex -0.001 -0.20536415 -0.21869059
endloop
endfacet
facet normal -1.0 0.0 0.0
outer loop
vertex -0.001 -0.16074805 -0.2532984
vertex -0.001 -0.19122721 -0.23115398
vertex -0.001 -0.20536415 -0.21869059
endloop
endfacet
endsolid disk1
